<svg width="24" height="24" viewBox="0 0 24 24" fill="none" xmlns="http://www.w3.org/2000/svg">
<mask id="mask0_279_20" style="mask-type:alpha" maskUnits="userSpaceOnUse" x="0" y="0" width="24" height="24">
<rect width="24" height="24" fill="#D9D9D9"/>
</mask>
<g mask="url(#mask0_279_20)">
<path d="M11.1 21.8999C10.15 22.8499 9.0625 23.0624 7.8375 22.5374C6.6125 22.0124 6 21.0749 6 19.7249V4.27493C6 2.92493 6.6125 1.98743 7.8375 1.46243C9.0625 0.937426 10.15 1.14993 11.1 2.09993L18.9 9.89993C19.2 10.1999 19.425 10.5249 19.575 10.8749C19.725 11.2249 19.8 11.5999 19.8 11.9999C19.8 12.3999 19.725 12.7749 19.575 13.1249C19.425 13.4749 19.2 13.7999 18.9 14.0999L11.1 21.8999Z" fill="#151515"/>
</g>
</svg>
