<svg width="589" height="429" viewBox="0 0 589 429" fill="none" xmlns="http://www.w3.org/2000/svg">
<g filter="url(#filter0_d_177_99)">
<g filter="url(#filter1_d_177_99)">
<mask id="mask0_177_99" style="mask-type:alpha" maskUnits="userSpaceOnUse" x="165" y="16" width="408" height="321">
<rect x="226.798" y="10" width="368.044" height="236.619" rx="28" transform="rotate(16.7999 226.798 10)" fill="url(#paint0_linear_177_99)"/>
</mask>
<g mask="url(#mask0_177_99)">
<rect x="226.798" y="10" width="368.044" height="236.619" transform="rotate(16.7999 226.798 10)" fill="url(#paint1_linear_177_99)"/>
</g>
</g>
<rect x="214.389" y="51.1025" width="368.044" height="46.336" transform="rotate(16.7999 214.389 51.1025)" fill="url(#paint2_linear_177_99)"/>
</g>
<g filter="url(#filter2_d_177_99)">
<mask id="mask1_177_99" style="mask-type:alpha" maskUnits="userSpaceOnUse" x="16" y="164" width="403" height="249">
<rect x="16" y="164.241" width="403" height="248" rx="28" fill="url(#paint3_linear_177_99)"/>
</mask>
<g mask="url(#mask1_177_99)">
<rect x="16" y="164.241" width="403" height="248" fill="url(#paint4_linear_177_99)"/>
<ellipse cx="84.0159" cy="145.787" rx="249.56" ry="254.725" transform="rotate(-15 84.0159 145.787)" fill="#1F1F1F"/>
<ellipse cx="90.5" cy="114.241" rx="247.5" ry="250" fill="#1C1C1C"/>
<rect x="57" y="267.241" width="51" height="38" rx="8" fill="url(#paint5_linear_177_99)"/>
<rect x="57" y="279.241" width="20" height="1" fill="#B36313"/>
<rect x="57" y="293.241" width="20" height="1" fill="#B36313"/>
<rect x="88" y="293.241" width="20" height="1" fill="#B36313"/>
<rect x="88" y="279.241" width="20" height="1" fill="#B36313"/>
<rect x="69" y="293.241" width="1" height="12" fill="#B36313"/>
<rect x="95" y="293.241" width="1" height="12" fill="#B36313"/>
<rect x="69" y="267.241" width="1" height="12" fill="#B36313"/>
<rect x="95" y="267.241" width="1" height="12" fill="#B36313"/>
<rect x="76.5" y="273.741" width="12" height="25" rx="6" stroke="#B26313"/>
<path d="M64.576 227.625C62.72 227.625 61.0987 227.188 59.712 226.313C58.3467 225.417 57.408 224.212 56.896 222.697L60.032 221.193C60.48 222.175 61.0987 222.943 61.888 223.497C62.6987 224.052 63.5947 224.329 64.576 224.329C65.344 224.329 65.952 224.159 66.4 223.817C66.848 223.476 67.072 223.028 67.072 222.473C67.072 222.132 66.976 221.855 66.784 221.641C66.6133 221.407 66.368 221.215 66.048 221.065C65.7493 220.895 65.4187 220.756 65.056 220.649L62.208 219.849C60.736 219.423 59.616 218.772 58.848 217.897C58.1013 217.023 57.728 215.988 57.728 214.793C57.728 213.727 57.9947 212.799 58.528 212.009C59.0827 211.199 59.84 210.569 60.8 210.121C61.7813 209.673 62.9013 209.449 64.16 209.449C65.8027 209.449 67.2533 209.844 68.512 210.633C69.7707 211.423 70.6667 212.532 71.2 213.961L68 215.465C67.7013 214.676 67.2 214.047 66.496 213.577C65.792 213.108 65.0027 212.873 64.128 212.873C63.424 212.873 62.8693 213.033 62.464 213.353C62.0587 213.673 61.856 214.089 61.856 214.601C61.856 214.921 61.9413 215.199 62.112 215.433C62.2827 215.668 62.5173 215.86 62.816 216.009C63.136 216.159 63.4987 216.297 63.904 216.425L66.688 217.257C68.1173 217.684 69.216 218.324 69.984 219.177C70.7733 220.031 71.168 221.076 71.168 222.313C71.168 223.359 70.8907 224.287 70.336 225.097C69.7813 225.887 69.0133 226.505 68.032 226.953C67.0507 227.401 65.8987 227.625 64.576 227.625ZM73.1095 227.241V203.017H77.3015V213.257L76.7255 212.649C77.1308 211.604 77.7922 210.815 78.7095 210.281C79.6482 209.727 80.7362 209.449 81.9735 209.449C83.2535 209.449 84.3842 209.727 85.3655 210.281C86.3682 210.836 87.1468 211.615 87.7015 212.617C88.2562 213.599 88.5335 214.74 88.5335 216.041V227.241H84.3415V217.033C84.3415 216.265 84.1922 215.604 83.8935 215.049C83.5948 214.495 83.1788 214.068 82.6455 213.769C82.1335 213.449 81.5255 213.289 80.8215 213.289C80.1388 213.289 79.5308 213.449 78.9975 213.769C78.4642 214.068 78.0482 214.495 77.7495 215.049C77.4508 215.604 77.3015 216.265 77.3015 217.033V227.241H73.1095ZM99.3102 227.625C97.6036 227.625 96.0462 227.231 94.6382 226.441C93.2516 225.652 92.1422 224.575 91.3102 223.209C90.4996 221.844 90.0942 220.287 90.0942 218.537C90.0942 216.788 90.4996 215.231 91.3102 213.865C92.1422 212.5 93.2516 211.423 94.6382 210.633C96.0249 209.844 97.5822 209.449 99.3102 209.449C101.017 209.449 102.564 209.844 103.95 210.633C105.337 211.423 106.436 212.5 107.246 213.865C108.078 215.209 108.494 216.767 108.494 218.537C108.494 220.287 108.078 221.844 107.246 223.209C106.414 224.575 105.305 225.652 103.918 226.441C102.532 227.231 100.996 227.625 99.3102 227.625ZM99.3102 223.785C100.249 223.785 101.07 223.561 101.774 223.113C102.5 222.665 103.065 222.047 103.47 221.257C103.897 220.447 104.11 219.54 104.11 218.537C104.11 217.513 103.897 216.617 103.47 215.849C103.065 215.06 102.5 214.441 101.774 213.993C101.07 213.524 100.249 213.289 99.3102 213.289C98.3502 213.289 97.5076 213.524 96.7822 213.993C96.0569 214.441 95.4809 215.06 95.0542 215.849C94.6489 216.617 94.4462 217.513 94.4462 218.537C94.4462 219.54 94.6489 220.447 95.0542 221.257C95.4809 222.047 96.0569 222.665 96.7822 223.113C97.5076 223.561 98.3502 223.785 99.3102 223.785ZM118.649 227.625C116.857 227.625 115.289 227.22 113.945 226.409C112.601 225.599 111.556 224.5 110.809 223.113C110.063 221.727 109.689 220.191 109.689 218.505C109.689 216.756 110.063 215.209 110.809 213.865C111.577 212.5 112.612 211.423 113.913 210.633C115.236 209.844 116.708 209.449 118.329 209.449C119.695 209.449 120.889 209.673 121.913 210.121C122.959 210.569 123.844 211.188 124.569 211.977C125.295 212.767 125.849 213.673 126.233 214.697C126.617 215.7 126.809 216.788 126.809 217.961C126.809 218.26 126.788 218.569 126.745 218.889C126.724 219.209 126.671 219.487 126.585 219.721H113.145V216.521H124.217L122.233 218.025C122.425 217.044 122.372 216.169 122.073 215.401C121.796 214.633 121.327 214.025 120.665 213.577C120.025 213.129 119.247 212.905 118.329 212.905C117.455 212.905 116.676 213.129 115.993 213.577C115.311 214.004 114.788 214.644 114.425 215.497C114.084 216.329 113.956 217.343 114.041 218.537C113.956 219.604 114.095 220.553 114.457 221.385C114.841 222.196 115.396 222.825 116.121 223.273C116.868 223.721 117.721 223.945 118.681 223.945C119.641 223.945 120.452 223.743 121.113 223.337C121.796 222.932 122.329 222.388 122.713 221.705L126.105 223.369C125.764 224.201 125.231 224.937 124.505 225.577C123.78 226.217 122.916 226.719 121.913 227.081C120.932 227.444 119.844 227.625 118.649 227.625ZM135.331 227.625C133.475 227.625 131.854 227.188 130.467 226.313C129.102 225.417 128.163 224.212 127.651 222.697L130.787 221.193C131.235 222.175 131.854 222.943 132.643 223.497C133.454 224.052 134.35 224.329 135.331 224.329C136.099 224.329 136.707 224.159 137.155 223.817C137.603 223.476 137.827 223.028 137.827 222.473C137.827 222.132 137.731 221.855 137.539 221.641C137.368 221.407 137.123 221.215 136.803 221.065C136.504 220.895 136.174 220.756 135.811 220.649L132.963 219.849C131.491 219.423 130.371 218.772 129.603 217.897C128.856 217.023 128.483 215.988 128.483 214.793C128.483 213.727 128.75 212.799 129.283 212.009C129.838 211.199 130.595 210.569 131.555 210.121C132.536 209.673 133.656 209.449 134.915 209.449C136.558 209.449 138.008 209.844 139.267 210.633C140.526 211.423 141.422 212.532 141.955 213.961L138.755 215.465C138.456 214.676 137.955 214.047 137.251 213.577C136.547 213.108 135.758 212.873 134.883 212.873C134.179 212.873 133.624 213.033 133.219 213.353C132.814 213.673 132.611 214.089 132.611 214.601C132.611 214.921 132.696 215.199 132.867 215.433C133.038 215.668 133.272 215.86 133.571 216.009C133.891 216.159 134.254 216.297 134.659 216.425L137.443 217.257C138.872 217.684 139.971 218.324 140.739 219.177C141.528 220.031 141.923 221.076 141.923 222.313C141.923 223.359 141.646 224.287 141.091 225.097C140.536 225.887 139.768 226.505 138.787 226.953C137.806 227.401 136.654 227.625 135.331 227.625Z" fill="#F5F5F5"/>
<path d="M61.46 362.241V349.661H58.58V347.341H64.18V362.241H61.46ZM66.1864 362.241V360.181L70.2264 355.961C71.0264 355.121 71.6397 354.455 72.0664 353.961C72.5064 353.455 72.8131 353.021 72.9864 352.661C73.1597 352.301 73.2464 351.935 73.2464 351.561C73.2464 350.935 73.0464 350.441 72.6464 350.081C72.2597 349.721 71.7597 349.541 71.1464 349.541C70.5064 349.541 69.9531 349.728 69.4864 350.101C69.0197 350.461 68.6797 350.995 68.4664 351.701L66.0864 350.961C66.2464 350.175 66.5731 349.495 67.0664 348.921C67.5597 348.335 68.1597 347.888 68.8664 347.581C69.5864 347.261 70.3464 347.101 71.1464 347.101C72.1064 347.101 72.9464 347.275 73.6664 347.621C74.3997 347.968 74.9664 348.455 75.3664 349.081C75.7797 349.708 75.9864 350.441 75.9864 351.281C75.9864 351.815 75.8864 352.341 75.6864 352.861C75.4864 353.381 75.1864 353.915 74.7864 354.461C74.3864 354.995 73.8664 355.595 73.2264 356.261L69.7264 359.941H76.1864V362.241H66.1864ZM82.26 362.481C81.4467 362.481 80.6733 362.335 79.94 362.041C79.22 361.735 78.6 361.308 78.08 360.761C77.5733 360.201 77.2267 359.541 77.04 358.781L79.42 357.941C79.66 358.621 80.0267 359.141 80.52 359.501C81.0133 359.848 81.5933 360.021 82.26 360.021C82.7933 360.021 83.2533 359.921 83.64 359.721C84.04 359.521 84.3533 359.235 84.58 358.861C84.8067 358.475 84.92 358.021 84.92 357.501C84.92 356.981 84.8067 356.541 84.58 356.181C84.3667 355.808 84.06 355.521 83.66 355.321C83.26 355.121 82.7867 355.021 82.24 355.021C81.9867 355.021 81.72 355.048 81.44 355.101C81.1733 355.155 80.9333 355.235 80.72 355.341L80.1 354.041L83.96 349.641H77.88V347.341H87.02V349.481L83.14 354.021L83.18 353.001C84.0733 353.015 84.8533 353.208 85.52 353.581C86.1867 353.955 86.7067 354.468 87.08 355.121C87.4533 355.775 87.64 356.541 87.64 357.421C87.64 358.381 87.4067 359.248 86.94 360.021C86.4733 360.781 85.8333 361.381 85.02 361.821C84.2067 362.261 83.2867 362.481 82.26 362.481ZM93.7666 362.481C92.9799 362.481 92.2266 362.335 91.5066 362.041C90.7999 361.748 90.1866 361.335 89.6666 360.801C89.1599 360.255 88.8132 359.608 88.6266 358.861L90.9866 358.021C91.2132 358.701 91.5799 359.208 92.0866 359.541C92.5932 359.861 93.1532 360.021 93.7666 360.021C94.2732 360.021 94.7199 359.915 95.1066 359.701C95.5066 359.475 95.8132 359.168 96.0266 358.781C96.2399 358.381 96.3466 357.921 96.3466 357.401C96.3466 356.881 96.2332 356.428 96.0066 356.041C95.7932 355.655 95.4932 355.355 95.1066 355.141C94.7199 354.915 94.2732 354.801 93.7666 354.801C93.2466 354.801 92.7732 354.915 92.3466 355.141C91.9332 355.368 91.6332 355.695 91.4466 356.121L89.2266 355.621L90.4066 347.341H98.5266V349.641H91.4866L92.5066 348.461L91.6666 354.701L90.8866 354.061C91.2599 353.515 91.7132 353.115 92.2466 352.861C92.7932 352.608 93.4532 352.481 94.2266 352.481C95.2132 352.481 96.0666 352.695 96.7866 353.121C97.5199 353.548 98.0866 354.128 98.4866 354.861C98.8866 355.595 99.0866 356.441 99.0866 357.401C99.0866 358.361 98.8532 359.228 98.3866 360.001C97.9199 360.775 97.2866 361.381 96.4866 361.821C95.6866 362.261 94.7799 362.481 93.7666 362.481ZM119.045 362.481C118.258 362.481 117.505 362.335 116.785 362.041C116.078 361.748 115.465 361.335 114.945 360.801C114.438 360.255 114.091 359.608 113.905 358.861L116.265 358.021C116.491 358.701 116.858 359.208 117.365 359.541C117.871 359.861 118.431 360.021 119.045 360.021C119.551 360.021 119.998 359.915 120.385 359.701C120.785 359.475 121.091 359.168 121.305 358.781C121.518 358.381 121.625 357.921 121.625 357.401C121.625 356.881 121.511 356.428 121.285 356.041C121.071 355.655 120.771 355.355 120.385 355.141C119.998 354.915 119.551 354.801 119.045 354.801C118.525 354.801 118.051 354.915 117.625 355.141C117.211 355.368 116.911 355.695 116.725 356.121L114.505 355.621L115.685 347.341H123.805V349.641H116.765L117.785 348.461L116.945 354.701L116.165 354.061C116.538 353.515 116.991 353.115 117.525 352.861C118.071 352.608 118.731 352.481 119.505 352.481C120.491 352.481 121.345 352.695 122.065 353.121C122.798 353.548 123.365 354.128 123.765 354.861C124.165 355.595 124.365 356.441 124.365 357.401C124.365 358.361 124.131 359.228 123.665 360.001C123.198 360.775 122.565 361.381 121.765 361.821C120.965 362.261 120.058 362.481 119.045 362.481ZM130.929 362.481C129.849 362.481 128.909 362.281 128.109 361.881C127.323 361.468 126.709 360.915 126.269 360.221C125.843 359.528 125.629 358.768 125.629 357.941C125.629 356.968 125.889 356.148 126.409 355.481C126.929 354.801 127.683 354.301 128.669 353.981L128.509 354.641C127.803 354.415 127.243 353.975 126.829 353.321C126.429 352.668 126.229 351.948 126.229 351.161C126.229 350.375 126.429 349.675 126.829 349.061C127.229 348.448 127.783 347.968 128.489 347.621C129.196 347.275 130.009 347.101 130.929 347.101C131.836 347.101 132.636 347.275 133.329 347.621C134.036 347.968 134.589 348.448 134.989 349.061C135.403 349.675 135.609 350.375 135.609 351.161C135.609 351.961 135.403 352.688 134.989 353.341C134.589 353.981 134.036 354.421 133.329 354.661L133.189 353.961C134.176 354.308 134.929 354.821 135.449 355.501C135.969 356.168 136.229 356.988 136.229 357.961C136.229 358.788 136.009 359.548 135.569 360.241C135.143 360.921 134.529 361.468 133.729 361.881C132.943 362.281 132.009 362.481 130.929 362.481ZM130.929 360.181C131.449 360.181 131.903 360.088 132.289 359.901C132.676 359.701 132.976 359.428 133.189 359.081C133.403 358.721 133.509 358.315 133.509 357.861C133.509 357.395 133.403 356.995 133.189 356.661C132.976 356.315 132.676 356.048 132.289 355.861C131.903 355.661 131.449 355.561 130.929 355.561C130.409 355.561 129.956 355.661 129.569 355.861C129.196 356.048 128.903 356.315 128.689 356.661C128.476 356.995 128.369 357.395 128.369 357.861C128.369 358.315 128.476 358.721 128.689 359.081C128.903 359.428 129.196 359.701 129.569 359.901C129.956 360.088 130.409 360.181 130.929 360.181ZM130.929 353.261C131.316 353.261 131.656 353.175 131.949 353.001C132.243 352.828 132.469 352.601 132.629 352.321C132.803 352.028 132.889 351.695 132.889 351.321C132.889 350.948 132.803 350.621 132.629 350.341C132.469 350.048 132.243 349.821 131.949 349.661C131.656 349.488 131.316 349.401 130.929 349.401C130.543 349.401 130.196 349.488 129.889 349.661C129.596 349.821 129.363 350.048 129.189 350.341C129.029 350.621 128.949 350.948 128.949 351.321C128.949 351.695 129.029 352.028 129.189 352.321C129.363 352.601 129.596 352.828 129.889 353.001C130.196 353.175 130.543 353.261 130.929 353.261ZM138.326 362.241L143.386 355.721L143.846 356.201C143.646 356.348 143.453 356.468 143.266 356.561C143.079 356.655 142.879 356.721 142.666 356.761C142.453 356.801 142.226 356.821 141.986 356.821C141.079 356.821 140.273 356.615 139.566 356.201C138.859 355.788 138.299 355.228 137.886 354.521C137.486 353.801 137.286 352.988 137.286 352.081C137.286 351.121 137.506 350.268 137.946 349.521C138.399 348.775 139.013 348.188 139.786 347.761C140.573 347.321 141.466 347.101 142.466 347.101C143.479 347.101 144.373 347.315 145.146 347.741C145.919 348.168 146.526 348.755 146.966 349.501C147.419 350.235 147.646 351.081 147.646 352.041C147.646 352.521 147.593 353.001 147.486 353.481C147.379 353.961 147.186 354.475 146.906 355.021C146.639 355.555 146.253 356.161 145.746 356.841L141.586 362.241H138.326ZM142.466 354.541C142.933 354.541 143.346 354.441 143.706 354.241C144.079 354.028 144.373 353.735 144.586 353.361C144.799 352.975 144.906 352.541 144.906 352.061C144.906 351.555 144.793 351.115 144.566 350.741C144.353 350.368 144.066 350.075 143.706 349.861C143.346 349.648 142.933 349.541 142.466 349.541C142.013 349.541 141.599 349.648 141.226 349.861C140.853 350.075 140.553 350.368 140.326 350.741C140.113 351.115 140.006 351.555 140.006 352.061C140.006 352.541 140.113 352.975 140.326 353.361C140.553 353.735 140.853 354.028 141.226 354.241C141.599 354.441 142.013 354.541 142.466 354.541ZM154.925 362.241V358.961H148.085V356.681L154.765 347.341H157.605V356.681H159.785V358.961H157.605V362.241H154.925ZM150.085 357.661L149.605 356.681H154.925V349.481L155.625 349.701L150.085 357.661ZM179.364 362.481C178.578 362.481 177.824 362.335 177.104 362.041C176.398 361.748 175.784 361.335 175.264 360.801C174.758 360.255 174.411 359.608 174.224 358.861L176.584 358.021C176.811 358.701 177.178 359.208 177.684 359.541C178.191 359.861 178.751 360.021 179.364 360.021C179.871 360.021 180.318 359.915 180.704 359.701C181.104 359.475 181.411 359.168 181.624 358.781C181.838 358.381 181.944 357.921 181.944 357.401C181.944 356.881 181.831 356.428 181.604 356.041C181.391 355.655 181.091 355.355 180.704 355.141C180.318 354.915 179.871 354.801 179.364 354.801C178.844 354.801 178.371 354.915 177.944 355.141C177.531 355.368 177.231 355.695 177.044 356.121L174.824 355.621L176.004 347.341H184.124V349.641H177.084L178.104 348.461L177.264 354.701L176.484 354.061C176.858 353.515 177.311 353.115 177.844 352.861C178.391 352.608 179.051 352.481 179.824 352.481C180.811 352.481 181.664 352.695 182.384 353.121C183.118 353.548 183.684 354.128 184.084 354.861C184.484 355.595 184.684 356.441 184.684 357.401C184.684 358.361 184.451 359.228 183.984 360.001C183.518 360.775 182.884 361.381 182.084 361.821C181.284 362.261 180.378 362.481 179.364 362.481ZM191.249 362.481C190.169 362.481 189.229 362.281 188.429 361.881C187.642 361.468 187.029 360.915 186.589 360.221C186.162 359.528 185.949 358.768 185.949 357.941C185.949 356.968 186.209 356.148 186.729 355.481C187.249 354.801 188.002 354.301 188.989 353.981L188.829 354.641C188.122 354.415 187.562 353.975 187.149 353.321C186.749 352.668 186.549 351.948 186.549 351.161C186.549 350.375 186.749 349.675 187.149 349.061C187.549 348.448 188.102 347.968 188.809 347.621C189.516 347.275 190.329 347.101 191.249 347.101C192.156 347.101 192.956 347.275 193.649 347.621C194.356 347.968 194.909 348.448 195.309 349.061C195.722 349.675 195.929 350.375 195.929 351.161C195.929 351.961 195.722 352.688 195.309 353.341C194.909 353.981 194.356 354.421 193.649 354.661L193.509 353.961C194.496 354.308 195.249 354.821 195.769 355.501C196.289 356.168 196.549 356.988 196.549 357.961C196.549 358.788 196.329 359.548 195.889 360.241C195.462 360.921 194.849 361.468 194.049 361.881C193.262 362.281 192.329 362.481 191.249 362.481ZM191.249 360.181C191.769 360.181 192.222 360.088 192.609 359.901C192.996 359.701 193.296 359.428 193.509 359.081C193.722 358.721 193.829 358.315 193.829 357.861C193.829 357.395 193.722 356.995 193.509 356.661C193.296 356.315 192.996 356.048 192.609 355.861C192.222 355.661 191.769 355.561 191.249 355.561C190.729 355.561 190.276 355.661 189.889 355.861C189.516 356.048 189.222 356.315 189.009 356.661C188.796 356.995 188.689 357.395 188.689 357.861C188.689 358.315 188.796 358.721 189.009 359.081C189.222 359.428 189.516 359.701 189.889 359.901C190.276 360.088 190.729 360.181 191.249 360.181ZM191.249 353.261C191.636 353.261 191.976 353.175 192.269 353.001C192.562 352.828 192.789 352.601 192.949 352.321C193.122 352.028 193.209 351.695 193.209 351.321C193.209 350.948 193.122 350.621 192.949 350.341C192.789 350.048 192.562 349.821 192.269 349.661C191.976 349.488 191.636 349.401 191.249 349.401C190.862 349.401 190.516 349.488 190.209 349.661C189.916 349.821 189.682 350.048 189.509 350.341C189.349 350.621 189.269 350.948 189.269 351.321C189.269 351.695 189.349 352.028 189.509 352.321C189.682 352.601 189.916 352.828 190.209 353.001C190.516 353.175 190.862 353.261 191.249 353.261ZM198.646 362.241L203.706 355.721L204.166 356.201C203.966 356.348 203.772 356.468 203.586 356.561C203.399 356.655 203.199 356.721 202.986 356.761C202.772 356.801 202.546 356.821 202.306 356.821C201.399 356.821 200.592 356.615 199.886 356.201C199.179 355.788 198.619 355.228 198.206 354.521C197.806 353.801 197.606 352.988 197.606 352.081C197.606 351.121 197.826 350.268 198.266 349.521C198.719 348.775 199.332 348.188 200.106 347.761C200.892 347.321 201.786 347.101 202.786 347.101C203.799 347.101 204.692 347.315 205.466 347.741C206.239 348.168 206.846 348.755 207.286 349.501C207.739 350.235 207.966 351.081 207.966 352.041C207.966 352.521 207.912 353.001 207.806 353.481C207.699 353.961 207.506 354.475 207.226 355.021C206.959 355.555 206.572 356.161 206.066 356.841L201.906 362.241H198.646ZM202.786 354.541C203.252 354.541 203.666 354.441 204.026 354.241C204.399 354.028 204.692 353.735 204.906 353.361C205.119 352.975 205.226 352.541 205.226 352.061C205.226 351.555 205.112 351.115 204.886 350.741C204.672 350.368 204.386 350.075 204.026 349.861C203.666 349.648 203.252 349.541 202.786 349.541C202.332 349.541 201.919 349.648 201.546 349.861C201.172 350.075 200.872 350.368 200.646 350.741C200.432 351.115 200.326 351.555 200.326 352.061C200.326 352.541 200.432 352.975 200.646 353.361C200.872 353.735 201.172 354.028 201.546 354.241C201.919 354.441 202.332 354.541 202.786 354.541ZM215.244 362.241V358.961H208.404V356.681L215.084 347.341H217.924V356.681H220.104V358.961H217.924V362.241H215.244ZM210.404 357.661L209.924 356.681H215.244V349.481L215.944 349.701L210.404 357.661ZM234.664 362.241V360.181L238.704 355.961C239.504 355.121 240.117 354.455 240.544 353.961C240.984 353.455 241.29 353.021 241.464 352.661C241.637 352.301 241.724 351.935 241.724 351.561C241.724 350.935 241.524 350.441 241.124 350.081C240.737 349.721 240.237 349.541 239.624 349.541C238.984 349.541 238.43 349.728 237.964 350.101C237.497 350.461 237.157 350.995 236.944 351.701L234.564 350.961C234.724 350.175 235.05 349.495 235.544 348.921C236.037 348.335 236.637 347.888 237.344 347.581C238.064 347.261 238.824 347.101 239.624 347.101C240.584 347.101 241.424 347.275 242.144 347.621C242.877 347.968 243.444 348.455 243.844 349.081C244.257 349.708 244.464 350.441 244.464 351.281C244.464 351.815 244.364 352.341 244.164 352.861C243.964 353.381 243.664 353.915 243.264 354.461C242.864 354.995 242.344 355.595 241.704 356.261L238.204 359.941H244.664V362.241H234.664ZM250.737 362.481C249.924 362.481 249.151 362.335 248.417 362.041C247.697 361.735 247.077 361.308 246.557 360.761C246.051 360.201 245.704 359.541 245.517 358.781L247.897 357.941C248.137 358.621 248.504 359.141 248.997 359.501C249.491 359.848 250.071 360.021 250.737 360.021C251.271 360.021 251.731 359.921 252.117 359.721C252.517 359.521 252.831 359.235 253.057 358.861C253.284 358.475 253.397 358.021 253.397 357.501C253.397 356.981 253.284 356.541 253.057 356.181C252.844 355.808 252.537 355.521 252.137 355.321C251.737 355.121 251.264 355.021 250.717 355.021C250.464 355.021 250.197 355.048 249.917 355.101C249.651 355.155 249.411 355.235 249.197 355.341L248.577 354.041L252.437 349.641H246.357V347.341H255.497V349.481L251.617 354.021L251.657 353.001C252.551 353.015 253.331 353.208 253.997 353.581C254.664 353.955 255.184 354.468 255.557 355.121C255.931 355.775 256.117 356.541 256.117 357.421C256.117 358.381 255.884 359.248 255.417 360.021C254.951 360.781 254.311 361.381 253.497 361.821C252.684 362.261 251.764 362.481 250.737 362.481ZM262.344 362.481C261.331 362.481 260.431 362.268 259.644 361.841C258.871 361.401 258.264 360.815 257.824 360.081C257.384 359.335 257.164 358.488 257.164 357.541C257.164 357.061 257.211 356.581 257.304 356.101C257.411 355.621 257.597 355.108 257.864 354.561C258.144 354.015 258.544 353.408 259.064 352.741L263.224 347.341H266.464L261.404 353.841L260.964 353.361C261.151 353.215 261.344 353.101 261.544 353.021C261.744 352.928 261.944 352.861 262.144 352.821C262.357 352.781 262.577 352.761 262.804 352.761C263.711 352.761 264.517 352.968 265.224 353.381C265.931 353.795 266.484 354.361 266.884 355.081C267.297 355.788 267.504 356.588 267.504 357.481C267.504 358.441 267.284 359.301 266.844 360.061C266.404 360.808 265.791 361.401 265.004 361.841C264.231 362.268 263.344 362.481 262.344 362.481ZM262.344 360.021C262.797 360.021 263.204 359.921 263.564 359.721C263.937 359.508 264.231 359.208 264.444 358.821C264.671 358.435 264.784 358.001 264.784 357.521C264.784 357.015 264.671 356.581 264.444 356.221C264.231 355.848 263.944 355.555 263.584 355.341C263.224 355.128 262.811 355.021 262.344 355.021C261.891 355.021 261.477 355.128 261.104 355.341C260.731 355.555 260.431 355.848 260.204 356.221C259.991 356.581 259.884 357.015 259.884 357.521C259.884 358.001 259.991 358.435 260.204 358.821C260.431 359.208 260.731 359.508 261.104 359.721C261.477 359.921 261.891 360.021 262.344 360.021ZM270.995 362.241V349.661H268.115V347.341H273.715V362.241H270.995Z" fill="#F5F5F5"/>
<circle cx="335.432" cy="351.673" r="21.4318" fill="#2C2C2C"/>
<circle cx="361.568" cy="351.673" r="21.4318" fill="#424242" fill-opacity="0.8"/>
<mask id="mask2_177_99" style="mask-type:alpha" maskUnits="userSpaceOnUse" x="361" y="274" width="24" height="25">
<rect x="385" y="274.241" width="24" height="24" transform="rotate(90 385 274.241)" fill="#D9D9D9"/>
</mask>
<g mask="url(#mask2_177_99)">
<path d="M370.725 279.541C371.025 279.241 371.383 279.1 371.8 279.116C372.217 279.133 372.542 279.3 372.775 279.616C373.475 280.533 374.021 281.554 374.412 282.679C374.804 283.804 375 284.991 375 286.241C375 287.508 374.8 288.704 374.4 289.829C374 290.954 373.442 291.975 372.725 292.891C372.492 293.208 372.171 293.37 371.762 293.379C371.354 293.387 371 293.241 370.7 292.941C370.417 292.658 370.271 292.312 370.262 291.904C370.254 291.495 370.367 291.116 370.6 290.766C371.05 290.116 371.396 289.412 371.637 288.654C371.879 287.895 372 287.091 372 286.241C372 285.391 371.875 284.587 371.625 283.829C371.375 283.07 371.033 282.375 370.6 281.741C370.35 281.375 370.237 280.987 370.262 280.579C370.287 280.17 370.442 279.825 370.725 279.541ZM374.95 275.291C375.233 275.008 375.579 274.866 375.987 274.866C376.396 274.866 376.733 275.016 377 275.316C378.25 276.8 379.229 278.466 379.937 280.316C380.646 282.166 381 284.141 381 286.241C381 288.341 380.646 290.316 379.937 292.166C379.229 294.016 378.25 295.683 377 297.166C376.733 297.466 376.4 297.62 376 297.629C375.6 297.637 375.25 297.491 374.95 297.191C374.667 296.908 374.517 296.562 374.5 296.154C374.483 295.745 374.608 295.375 374.875 295.041C375.858 293.825 376.625 292.47 377.175 290.979C377.725 289.487 378 287.908 378 286.241C378 284.575 377.725 282.995 377.175 281.504C376.625 280.012 375.858 278.658 374.875 277.441C374.608 277.108 374.483 276.737 374.5 276.329C374.517 275.92 374.667 275.575 374.95 275.291ZM365 286.241C365 285.675 365.192 285.2 365.575 284.816C365.958 284.433 366.433 284.241 367 284.241C367.567 284.241 368.042 284.433 368.425 284.816C368.808 285.2 369 285.675 369 286.241C369 286.808 368.808 287.283 368.425 287.666C368.042 288.05 367.567 288.241 367 288.241C366.433 288.241 365.958 288.05 365.575 287.666C365.192 287.283 365 286.808 365 286.241Z" fill="#F5F5F5"/>
</g>
</g>
</g>
<defs>
<filter id="filter0_d_177_99" x="149.298" y="0.890381" width="438.945" height="351.115" filterUnits="userSpaceOnUse" color-interpolation-filters="sRGB">
<feFlood flood-opacity="0" result="BackgroundImageFix"/>
<feColorMatrix in="SourceAlpha" type="matrix" values="0 0 0 0 0 0 0 0 0 0 0 0 0 0 0 0 0 0 127 0" result="hardAlpha"/>
<feOffset/>
<feGaussianBlur stdDeviation="8"/>
<feComposite in2="hardAlpha" operator="out"/>
<feColorMatrix type="matrix" values="0 0 0 0 0 0 0 0 0 0 0 0 0 0 0 0 0 0 0.25 0"/>
<feBlend mode="normal" in2="BackgroundImageFix" result="effect1_dropShadow_177_99"/>
<feBlend mode="normal" in="SourceGraphic" in2="effect1_dropShadow_177_99" result="shape"/>
</filter>
<filter id="filter1_d_177_99" x="149.298" y="0.890381" width="438.945" height="351.115" filterUnits="userSpaceOnUse" color-interpolation-filters="sRGB">
<feFlood flood-opacity="0" result="BackgroundImageFix"/>
<feColorMatrix in="SourceAlpha" type="matrix" values="0 0 0 0 0 0 0 0 0 0 0 0 0 0 0 0 0 0 127 0" result="hardAlpha"/>
<feOffset/>
<feGaussianBlur stdDeviation="8"/>
<feComposite in2="hardAlpha" operator="out"/>
<feColorMatrix type="matrix" values="0 0 0 0 0 0 0 0 0 0 0 0 0 0 0 0 0 0 0.25 0"/>
<feBlend mode="normal" in2="BackgroundImageFix" result="effect1_dropShadow_177_99"/>
<feBlend mode="normal" in="SourceGraphic" in2="effect1_dropShadow_177_99" result="shape"/>
</filter>
<filter id="filter2_d_177_99" x="0" y="148.241" width="435" height="280" filterUnits="userSpaceOnUse" color-interpolation-filters="sRGB">
<feFlood flood-opacity="0" result="BackgroundImageFix"/>
<feColorMatrix in="SourceAlpha" type="matrix" values="0 0 0 0 0 0 0 0 0 0 0 0 0 0 0 0 0 0 127 0" result="hardAlpha"/>
<feOffset/>
<feGaussianBlur stdDeviation="8"/>
<feComposite in2="hardAlpha" operator="out"/>
<feColorMatrix type="matrix" values="0 0 0 0 0 0 0 0 0 0 0 0 0 0 0 0 0 0 0.25 0"/>
<feBlend mode="normal" in2="BackgroundImageFix" result="effect1_dropShadow_177_99"/>
<feBlend mode="normal" in="SourceGraphic" in2="effect1_dropShadow_177_99" result="shape"/>
</filter>
<linearGradient id="paint0_linear_177_99" x1="601.234" y1="14.7705" x2="218.771" y2="226.387" gradientUnits="userSpaceOnUse">
<stop stop-color="#252525"/>
<stop offset="1" stop-color="#070707"/>
</linearGradient>
<linearGradient id="paint1_linear_177_99" x1="601.234" y1="14.7705" x2="218.771" y2="226.387" gradientUnits="userSpaceOnUse">
<stop stop-color="#2D2D2D"/>
<stop offset="1" stop-color="#090909"/>
</linearGradient>
<linearGradient id="paint2_linear_177_99" x1="582.432" y1="74.2706" x2="214.389" y2="74.2705" gradientUnits="userSpaceOnUse">
<stop stop-color="#616161"/>
<stop offset="1" stop-color="#3E3E3E"/>
</linearGradient>
<linearGradient id="paint3_linear_177_99" x1="426" y1="169.241" x2="16" y2="406.241" gradientUnits="userSpaceOnUse">
<stop stop-color="#252525"/>
<stop offset="1" stop-color="#070707"/>
</linearGradient>
<linearGradient id="paint4_linear_177_99" x1="426" y1="169.241" x2="16" y2="406.241" gradientUnits="userSpaceOnUse">
<stop stop-color="#252525"/>
<stop offset="1" stop-color="#070707"/>
</linearGradient>
<linearGradient id="paint5_linear_177_99" x1="109.5" y1="287.893" x2="56.9925" y2="286.531" gradientUnits="userSpaceOnUse">
<stop stop-color="#EC801C"/>
<stop offset="1" stop-color="#FAD818"/>
</linearGradient>
</defs>
</svg>
