<svg width="20" height="20" viewBox="0 0 20 20" fill="none" xmlns="http://www.w3.org/2000/svg">
<mask id="mask0_183_72" style="mask-type:alpha" maskUnits="userSpaceOnUse" x="0" y="0" width="20" height="20">
<rect width="20" height="20" fill="#D9D9D9"/>
</mask>
<g mask="url(#mask0_183_72)">
<path d="M8.83317 11.5L7.0415 9.70832C6.88873 9.55555 6.69428 9.47916 6.45817 9.47916C6.22206 9.47916 6.02762 9.55555 5.87484 9.70832C5.72206 9.8611 5.64567 10.0555 5.64567 10.2917C5.64567 10.5278 5.72206 10.7222 5.87484 10.875L8.24984 13.25C8.4165 13.4167 8.61095 13.5 8.83317 13.5C9.05539 13.5 9.24984 13.4167 9.4165 13.25L14.1248 8.54166C14.2776 8.38888 14.354 8.19443 14.354 7.95832C14.354 7.72221 14.2776 7.52777 14.1248 7.37499C13.9721 7.22221 13.7776 7.14582 13.5415 7.14582C13.3054 7.14582 13.1109 7.22221 12.9582 7.37499L8.83317 11.5ZM9.99984 18.3333C8.84706 18.3333 7.76373 18.1146 6.74984 17.6771C5.73595 17.2396 4.854 16.6458 4.104 15.8958C3.354 15.1458 2.76025 14.2639 2.32275 13.25C1.88525 12.2361 1.6665 11.1528 1.6665 9.99999C1.6665 8.84721 1.88525 7.76388 2.32275 6.74999C2.76025 5.7361 3.354 4.85416 4.104 4.10416C4.854 3.35416 5.73595 2.76041 6.74984 2.32291C7.76373 1.88541 8.84706 1.66666 9.99984 1.66666C11.1526 1.66666 12.2359 1.88541 13.2498 2.32291C14.2637 2.76041 15.1457 3.35416 15.8957 4.10416C16.6457 4.85416 17.2394 5.7361 17.6769 6.74999C18.1144 7.76388 18.3332 8.84721 18.3332 9.99999C18.3332 11.1528 18.1144 12.2361 17.6769 13.25C17.2394 14.2639 16.6457 15.1458 15.8957 15.8958C15.1457 16.6458 14.2637 17.2396 13.2498 17.6771C12.2359 18.1146 11.1526 18.3333 9.99984 18.3333Z" fill="#C1FF3E"/>
</g>
</svg>
