<svg width="102" height="102" viewBox="0 0 102 102" fill="none" xmlns="http://www.w3.org/2000/svg">
<circle cx="6.375" cy="6.375" r="6.375" fill="#A9A9A9" fill-opacity="0.25"/>
<circle cx="6.375" cy="51" r="6.375" fill="#A9A9A9" fill-opacity="0.25"/>
<circle cx="6.375" cy="28.6875" r="6.375" fill="#A9A9A9" fill-opacity="0.25"/>
<circle cx="6.375" cy="73.3125" r="6.375" fill="#A9A9A9" fill-opacity="0.25"/>
<circle cx="6.375" cy="95.625" r="6.375" fill="#A9A9A9" fill-opacity="0.25"/>
<circle cx="28.6875" cy="6.375" r="6.375" fill="#A9A9A9" fill-opacity="0.25"/>
<circle cx="28.6875" cy="51" r="6.375" fill="#A9A9A9" fill-opacity="0.25"/>
<circle cx="28.6875" cy="28.6875" r="6.375" fill="#A9A9A9" fill-opacity="0.25"/>
<circle cx="28.6875" cy="73.3125" r="6.375" fill="#A9A9A9" fill-opacity="0.25"/>
<circle cx="28.6875" cy="95.625" r="6.375" fill="#A9A9A9" fill-opacity="0.25"/>
<circle cx="51" cy="6.375" r="6.375" fill="#A9A9A9" fill-opacity="0.25"/>
<circle cx="51" cy="51" r="6.375" fill="#A9A9A9" fill-opacity="0.25"/>
<circle cx="51" cy="28.6875" r="6.375" fill="#A9A9A9" fill-opacity="0.25"/>
<circle cx="51" cy="73.3125" r="6.375" fill="#A9A9A9" fill-opacity="0.25"/>
<circle cx="51" cy="95.625" r="6.375" fill="#A9A9A9" fill-opacity="0.25"/>
<circle cx="73.3125" cy="6.375" r="6.375" fill="#A9A9A9" fill-opacity="0.25"/>
<circle cx="73.3125" cy="51" r="6.375" fill="#A9A9A9" fill-opacity="0.25"/>
<circle cx="73.3125" cy="28.6875" r="6.375" fill="#A9A9A9" fill-opacity="0.25"/>
<circle cx="73.3125" cy="73.3125" r="6.375" fill="#A9A9A9" fill-opacity="0.25"/>
<circle cx="73.3125" cy="95.625" r="6.375" fill="#A9A9A9" fill-opacity="0.25"/>
<circle cx="95.625" cy="6.375" r="6.375" fill="#A9A9A9" fill-opacity="0.25"/>
<circle cx="95.625" cy="51" r="6.375" fill="#A9A9A9" fill-opacity="0.25"/>
<circle cx="95.625" cy="28.6875" r="6.375" fill="#A9A9A9" fill-opacity="0.25"/>
<circle cx="95.625" cy="73.3125" r="6.375" fill="#A9A9A9" fill-opacity="0.25"/>
<circle cx="95.625" cy="95.625" r="6.375" fill="#A9A9A9" fill-opacity="0.25"/>
</svg>
