<svg width="86" height="26" viewBox="0 0 86 26" fill="none" xmlns="http://www.w3.org/2000/svg">
<path d="M8.576 25.384C6.72 25.384 5.09867 24.9467 3.712 24.072C2.34667 23.176 1.408 21.9707 0.896 20.456L4.032 18.952C4.48 19.9333 5.09867 20.7013 5.888 21.256C6.69867 21.8107 7.59467 22.088 8.576 22.088C9.344 22.088 9.952 21.9173 10.4 21.576C10.848 21.2347 11.072 20.7867 11.072 20.232C11.072 19.8907 10.976 19.6133 10.784 19.4C10.6133 19.1653 10.368 18.9733 10.048 18.824C9.74933 18.6533 9.41867 18.5147 9.056 18.408L6.208 17.608C4.736 17.1813 3.616 16.5307 2.848 15.656C2.10133 14.7813 1.728 13.7467 1.728 12.552C1.728 11.4853 1.99467 10.5573 2.528 9.768C3.08267 8.95733 3.84 8.328 4.8 7.88C5.78133 7.432 6.90133 7.208 8.16 7.208C9.80267 7.208 11.2533 7.60266 12.512 8.392C13.7707 9.18133 14.6667 10.2907 15.2 11.72L12 13.224C11.7013 12.4347 11.2 11.8053 10.496 11.336C9.792 10.8667 9.00267 10.632 8.128 10.632C7.424 10.632 6.86933 10.792 6.464 11.112C6.05867 11.432 5.856 11.848 5.856 12.36C5.856 12.68 5.94133 12.9573 6.112 13.192C6.28267 13.4267 6.51733 13.6187 6.816 13.768C7.136 13.9173 7.49867 14.056 7.904 14.184L10.688 15.016C12.1173 15.4427 13.216 16.0827 13.984 16.936C14.7733 17.7893 15.168 18.8347 15.168 20.072C15.168 21.1173 14.8907 22.0453 14.336 22.856C13.7813 23.6453 13.0133 24.264 12.032 24.712C11.0507 25.16 9.89867 25.384 8.576 25.384ZM17.1095 25V0.775999H21.3015V11.016L20.7255 10.408C21.1308 9.36267 21.7922 8.57333 22.7095 8.04C23.6482 7.48533 24.7362 7.208 25.9735 7.208C27.2535 7.208 28.3842 7.48533 29.3655 8.04C30.3682 8.59467 31.1468 9.37333 31.7015 10.376C32.2562 11.3573 32.5335 12.4987 32.5335 13.8V25H28.3415V14.792C28.3415 14.024 28.1922 13.3627 27.8935 12.808C27.5948 12.2533 27.1788 11.8267 26.6455 11.528C26.1335 11.208 25.5255 11.048 24.8215 11.048C24.1388 11.048 23.5308 11.208 22.9975 11.528C22.4642 11.8267 22.0482 12.2533 21.7495 12.808C21.4508 13.3627 21.3015 14.024 21.3015 14.792V25H17.1095ZM43.3102 25.384C41.6036 25.384 40.0462 24.9893 38.6382 24.2C37.2516 23.4107 36.1422 22.3333 35.3102 20.968C34.4996 19.6027 34.0942 18.0453 34.0942 16.296C34.0942 14.5467 34.4996 12.9893 35.3102 11.624C36.1422 10.2587 37.2516 9.18133 38.6382 8.392C40.0249 7.60266 41.5822 7.208 43.3102 7.208C45.0169 7.208 46.5636 7.60266 47.9502 8.392C49.3369 9.18133 50.4356 10.2587 51.2463 11.624C52.0782 12.968 52.4942 14.5253 52.4942 16.296C52.4942 18.0453 52.0782 19.6027 51.2463 20.968C50.4142 22.3333 49.3049 23.4107 47.9182 24.2C46.5316 24.9893 44.9956 25.384 43.3102 25.384ZM43.3102 21.544C44.2489 21.544 45.0702 21.32 45.7742 20.872C46.4996 20.424 47.0649 19.8053 47.4702 19.016C47.8969 18.2053 48.1102 17.2987 48.1102 16.296C48.1102 15.272 47.8969 14.376 47.4702 13.608C47.0649 12.8187 46.4996 12.2 45.7742 11.752C45.0702 11.2827 44.2489 11.048 43.3102 11.048C42.3502 11.048 41.5076 11.2827 40.7822 11.752C40.0569 12.2 39.4809 12.8187 39.0542 13.608C38.6489 14.376 38.4462 15.272 38.4462 16.296C38.4462 17.2987 38.6489 18.2053 39.0542 19.016C39.4809 19.8053 40.0569 20.424 40.7822 20.872C41.5076 21.32 42.3502 21.544 43.3102 21.544ZM62.6493 25.384C60.8573 25.384 59.2893 24.9787 57.9453 24.168C56.6013 23.3573 55.5559 22.2587 54.8092 20.872C54.0626 19.4853 53.6892 17.9493 53.6892 16.264C53.6892 14.5147 54.0626 12.968 54.8092 11.624C55.5773 10.2587 56.6119 9.18133 57.9132 8.392C59.2359 7.60266 60.7079 7.208 62.3293 7.208C63.6946 7.208 64.8893 7.432 65.9133 7.88C66.9586 8.328 67.8439 8.94667 68.5693 9.736C69.2946 10.5253 69.8493 11.432 70.2333 12.456C70.6173 13.4587 70.8092 14.5467 70.8092 15.72C70.8092 16.0187 70.7879 16.328 70.7453 16.648C70.7239 16.968 70.6706 17.2453 70.5853 17.48H57.1452V14.28H68.2173L66.2333 15.784C66.4253 14.8027 66.3719 13.928 66.0733 13.16C65.7959 12.392 65.3266 11.784 64.6653 11.336C64.0253 10.888 63.2466 10.664 62.3293 10.664C61.4546 10.664 60.6759 10.888 59.9933 11.336C59.3106 11.7627 58.7879 12.4027 58.4253 13.256C58.0839 14.088 57.9559 15.1013 58.0413 16.296C57.9559 17.3627 58.0946 18.312 58.4573 19.144C58.8413 19.9547 59.3959 20.584 60.1213 21.032C60.8679 21.48 61.7213 21.704 62.6813 21.704C63.6413 21.704 64.4519 21.5013 65.1133 21.096C65.7959 20.6907 66.3293 20.1467 66.7133 19.464L70.1053 21.128C69.7639 21.96 69.2306 22.696 68.5053 23.336C67.7799 23.976 66.9159 24.4773 65.9133 24.84C64.9319 25.2027 63.8439 25.384 62.6493 25.384ZM79.331 25.384C77.475 25.384 75.8537 24.9467 74.467 24.072C73.1017 23.176 72.163 21.9707 71.651 20.456L74.787 18.952C75.235 19.9333 75.8537 20.7013 76.643 21.256C77.4537 21.8107 78.3497 22.088 79.331 22.088C80.099 22.088 80.707 21.9173 81.155 21.576C81.603 21.2347 81.827 20.7867 81.827 20.232C81.827 19.8907 81.731 19.6133 81.539 19.4C81.3683 19.1653 81.123 18.9733 80.803 18.824C80.5043 18.6533 80.1737 18.5147 79.811 18.408L76.963 17.608C75.491 17.1813 74.371 16.5307 73.603 15.656C72.8563 14.7813 72.483 13.7467 72.483 12.552C72.483 11.4853 72.7497 10.5573 73.283 9.768C73.8377 8.95733 74.595 8.328 75.555 7.88C76.5363 7.432 77.6563 7.208 78.915 7.208C80.5577 7.208 82.0083 7.60266 83.267 8.392C84.5257 9.18133 85.4217 10.2907 85.955 11.72L82.755 13.224C82.4563 12.4347 81.955 11.8053 81.251 11.336C80.547 10.8667 79.7577 10.632 78.883 10.632C78.179 10.632 77.6243 10.792 77.219 11.112C76.8137 11.432 76.611 11.848 76.611 12.36C76.611 12.68 76.6963 12.9573 76.867 13.192C77.0377 13.4267 77.2723 13.6187 77.571 13.768C77.891 13.9173 78.2537 14.056 78.659 14.184L81.443 15.016C82.8723 15.4427 83.971 16.0827 84.739 16.936C85.5283 17.7893 85.923 18.8347 85.923 20.072C85.923 21.1173 85.6457 22.0453 85.091 22.856C84.5363 23.6453 83.7683 24.264 82.787 24.712C81.8057 25.16 80.6537 25.384 79.331 25.384Z" fill="white"/>
</svg>
