<svg width="65" height="20" viewBox="0 0 65 20" fill="none" xmlns="http://www.w3.org/2000/svg">
<path d="M6.432 19.288C5.04 19.288 3.824 18.96 2.784 18.304C1.76 17.632 1.056 16.728 0.672 15.592L3.024 14.464C3.36 15.2 3.824 15.776 4.416 16.192C5.024 16.608 5.696 16.816 6.432 16.816C7.008 16.816 7.464 16.688 7.8 16.432C8.136 16.176 8.304 15.84 8.304 15.424C8.304 15.168 8.232 14.96 8.088 14.8C7.96 14.624 7.776 14.48 7.536 14.368C7.312 14.24 7.064 14.136 6.792 14.056L4.656 13.456C3.552 13.136 2.712 12.648 2.136 11.992C1.576 11.336 1.296 10.56 1.296 9.664C1.296 8.864 1.496 8.168 1.896 7.576C2.312 6.968 2.88 6.496 3.6 6.16C4.336 5.824 5.176 5.656 6.12 5.656C7.352 5.656 8.44 5.952 9.384 6.544C10.328 7.136 11 7.968 11.4 9.04L9 10.168C8.776 9.576 8.4 9.104 7.872 8.752C7.344 8.4 6.752 8.224 6.096 8.224C5.568 8.224 5.152 8.344 4.848 8.584C4.544 8.824 4.392 9.136 4.392 9.52C4.392 9.76 4.456 9.968 4.584 10.144C4.712 10.32 4.888 10.464 5.112 10.576C5.352 10.688 5.624 10.792 5.928 10.888L8.016 11.512C9.088 11.832 9.912 12.312 10.488 12.952C11.08 13.592 11.376 14.376 11.376 15.304C11.376 16.088 11.168 16.784 10.752 17.392C10.336 17.984 9.76 18.448 9.024 18.784C8.288 19.12 7.424 19.288 6.432 19.288ZM12.8321 19V0.831999H15.9761V8.512L15.5441 8.056C15.8481 7.272 16.3441 6.68 17.0321 6.28C17.7361 5.864 18.5521 5.656 19.4801 5.656C20.4401 5.656 21.2881 5.864 22.0241 6.28C22.7761 6.696 23.3601 7.28 23.7761 8.032C24.1921 8.768 24.4001 9.624 24.4001 10.6V19H21.2561V11.344C21.2561 10.768 21.1441 10.272 20.9201 9.856C20.6961 9.44 20.3841 9.12 19.9841 8.896C19.6001 8.656 19.1441 8.536 18.6161 8.536C18.1041 8.536 17.6481 8.656 17.2481 8.896C16.8481 9.12 16.5361 9.44 16.3121 9.856C16.0881 10.272 15.9761 10.768 15.9761 11.344V19H12.8321ZM32.4827 19.288C31.2027 19.288 30.0347 18.992 28.9787 18.4C27.9387 17.808 27.1067 17 26.4827 15.976C25.8747 14.952 25.5707 13.784 25.5707 12.472C25.5707 11.16 25.8747 9.992 26.4827 8.968C27.1067 7.944 27.9387 7.136 28.9787 6.544C30.0187 5.952 31.1867 5.656 32.4827 5.656C33.7627 5.656 34.9227 5.952 35.9627 6.544C37.0027 7.136 37.8267 7.944 38.4347 8.968C39.0587 9.976 39.3707 11.144 39.3707 12.472C39.3707 13.784 39.0587 14.952 38.4347 15.976C37.8107 17 36.9787 17.808 35.9387 18.4C34.8987 18.992 33.7467 19.288 32.4827 19.288ZM32.4827 16.408C33.1867 16.408 33.8027 16.24 34.3307 15.904C34.8747 15.568 35.2987 15.104 35.6027 14.512C35.9227 13.904 36.0827 13.224 36.0827 12.472C36.0827 11.704 35.9227 11.032 35.6027 10.456C35.2987 9.864 34.8747 9.4 34.3307 9.064C33.8027 8.712 33.1867 8.536 32.4827 8.536C31.7627 8.536 31.1307 8.712 30.5867 9.064C30.0427 9.4 29.6107 9.864 29.2907 10.456C28.9867 11.032 28.8347 11.704 28.8347 12.472C28.8347 13.224 28.9867 13.904 29.2907 14.512C29.6107 15.104 30.0427 15.568 30.5867 15.904C31.1307 16.24 31.7627 16.408 32.4827 16.408ZM46.9869 19.288C45.6429 19.288 44.4669 18.984 43.4589 18.376C42.4509 17.768 41.6669 16.944 41.1069 15.904C40.5469 14.864 40.2669 13.712 40.2669 12.448C40.2669 11.136 40.5469 9.976 41.1069 8.968C41.6829 7.944 42.4589 7.136 43.4349 6.544C44.4269 5.952 45.5309 5.656 46.7469 5.656C47.7709 5.656 48.6669 5.824 49.4349 6.16C50.2189 6.496 50.8829 6.96 51.4269 7.552C51.9709 8.144 52.3869 8.824 52.6749 9.592C52.9629 10.344 53.1069 11.16 53.1069 12.04C53.1069 12.264 53.0909 12.496 53.0589 12.736C53.0429 12.976 53.0029 13.184 52.9389 13.36H42.8589V10.96H51.1629L49.6749 12.088C49.8189 11.352 49.7789 10.696 49.5549 10.12C49.3469 9.544 48.9949 9.088 48.4989 8.752C48.0189 8.416 47.4349 8.248 46.7469 8.248C46.0909 8.248 45.5069 8.416 44.9949 8.752C44.4829 9.072 44.0909 9.552 43.8189 10.192C43.5629 10.816 43.4669 11.576 43.5309 12.472C43.4669 13.272 43.5709 13.984 43.8429 14.608C44.1309 15.216 44.5469 15.688 45.0909 16.024C45.6509 16.36 46.2909 16.528 47.0109 16.528C47.7309 16.528 48.3389 16.376 48.8349 16.072C49.3469 15.768 49.7469 15.36 50.0349 14.848L52.5789 16.096C52.3229 16.72 51.9229 17.272 51.3789 17.752C50.8349 18.232 50.1869 18.608 49.4349 18.88C48.6989 19.152 47.8829 19.288 46.9869 19.288ZM59.4983 19.288C58.1063 19.288 56.8903 18.96 55.8502 18.304C54.8262 17.632 54.1222 16.728 53.7382 15.592L56.0902 14.464C56.4262 15.2 56.8902 15.776 57.4823 16.192C58.0903 16.608 58.7623 16.816 59.4983 16.816C60.0743 16.816 60.5303 16.688 60.8663 16.432C61.2023 16.176 61.3703 15.84 61.3703 15.424C61.3703 15.168 61.2983 14.96 61.1543 14.8C61.0263 14.624 60.8423 14.48 60.6023 14.368C60.3783 14.24 60.1303 14.136 59.8583 14.056L57.7222 13.456C56.6182 13.136 55.7782 12.648 55.2022 11.992C54.6422 11.336 54.3622 10.56 54.3622 9.664C54.3622 8.864 54.5622 8.168 54.9622 7.576C55.3782 6.968 55.9462 6.496 56.6662 6.16C57.4023 5.824 58.2423 5.656 59.1863 5.656C60.4183 5.656 61.5063 5.952 62.4503 6.544C63.3943 7.136 64.0663 7.968 64.4663 9.04L62.0663 10.168C61.8423 9.576 61.4663 9.104 60.9383 8.752C60.4103 8.4 59.8183 8.224 59.1623 8.224C58.6343 8.224 58.2183 8.344 57.9143 8.584C57.6103 8.824 57.4583 9.136 57.4583 9.52C57.4583 9.76 57.5223 9.968 57.6503 10.144C57.7783 10.32 57.9543 10.464 58.1783 10.576C58.4183 10.688 58.6903 10.792 58.9943 10.888L61.0823 11.512C62.1543 11.832 62.9783 12.312 63.5543 12.952C64.1463 13.592 64.4423 14.376 64.4423 15.304C64.4423 16.088 64.2343 16.784 63.8183 17.392C63.4023 17.984 62.8263 18.448 62.0903 18.784C61.3543 19.12 60.4903 19.288 59.4983 19.288Z" fill="#1F290A"/>
</svg>
