<svg width="64" height="43" viewBox="0 0 64 43" fill="none" xmlns="http://www.w3.org/2000/svg">
<path d="M58.2982 42.6482C55.3457 42.6482 53.5944 41.1372 53.4604 38.9609H56.2836C56.2836 39.6864 56.6856 40.6521 58.4322 40.7121C59.6428 40.7121 60.3128 39.9867 60.3128 39.4415C60.1788 38.5959 59.1022 38.5358 58.0302 38.3509C57.0615 38.2365 56.1121 37.9941 55.2071 37.6301C54.7469 37.3725 54.3659 36.9941 54.1052 36.5356C53.8446 36.0771 53.7144 35.556 53.7285 35.0288C53.7285 33.0927 55.3457 31.5818 58.1642 31.5818C60.8534 31.5818 62.6 32.9726 62.7294 35.0888H60.0448C60.0448 34.5482 59.9108 33.638 58.2982 33.638C57.2216 33.638 56.5517 33.8181 56.4177 34.6036C56.4177 35.6941 58.7002 35.6341 60.4468 36.0546C62.0594 36.4797 63.136 37.5055 63.136 38.9609C63.136 41.6224 60.9874 42.6482 58.2982 42.6482Z" fill="black"/>
<path d="M6.85254 24.7919L16.1215 19.4088L21.0934 27.9387H8.59934" fill="black"/>
<path d="M26.3438 42.3272V31.5613V42.3272Z" fill="black"/>
<path d="M26.3438 42.3272V31.5613" stroke="black" stroke-width="2.4"/>
<path d="M2.55058 37.1035C2.55058 38.7946 4.02916 40.1854 5.63713 40.1854C7.38833 40.1854 8.7283 38.7946 8.7283 37.1035C8.7283 35.4724 7.38833 34.0216 5.63713 34.0216C4.82808 34.0492 4.05962 34.3825 3.48677 34.9545C2.91393 35.5265 2.57935 36.2945 2.55058 37.1035ZM5.50314 42.6667C2.55058 42.6667 0 40.1854 0 37.1035C0 34.0216 2.55058 31.6003 5.50314 31.6003C6.71373 31.6003 7.79032 31.9054 8.7283 32.5661V31.7205H11.4175V42.4218H8.7283V41.7564C7.92432 42.3617 6.71373 42.6667 5.50314 42.6667Z" fill="black"/>
<path d="M41.3786 27.9361L28.4824 5.44306L37.7516 0L53.8728 27.9361" fill="black"/>
<path d="M14.9108 37.1034C14.9108 38.7945 16.2554 40.1853 18.002 40.1853C19.61 40.1853 21.0932 38.7945 21.0932 37.1034C21.0632 36.294 20.7277 35.526 20.1541 34.9541C19.5805 34.3823 18.8115 34.049 18.002 34.0215C17.1849 34.0251 16.4021 34.3507 15.8235 34.9276C15.2448 35.5046 14.9169 36.2863 14.9108 37.1034ZM17.868 42.6666C17.1397 42.6679 16.4183 42.5244 15.7459 42.2446C15.0735 41.9648 14.4633 41.5542 13.9509 41.0366C13.4385 40.519 13.034 39.9047 12.761 39.2295C12.4879 38.5543 12.3517 37.8317 12.3602 37.1034C12.3602 34.0215 14.7768 31.6002 17.868 31.6002C19.074 31.6002 20.1506 31.9053 21.0932 32.566V28.0331H23.7777V42.4217H21.0932V41.7563C20.13 42.368 19.0089 42.6845 17.868 42.6666Z" fill="black"/>
<path d="M17.7354 15.1779L27.1386 9.85962L37.4838 27.9354H27.6744V30.5968H24.9898V27.9354" fill="black"/>
<path d="M61.3939 30.6807C61.0429 30.6705 60.7089 30.5274 60.4593 30.2804C60.2098 30.0334 60.0632 29.7009 60.0493 29.35C60.0632 28.9992 60.2098 28.6667 60.4593 28.4197C60.7089 28.1727 61.0429 28.0296 61.3939 28.0193C61.5707 28.0143 61.7466 28.0452 61.9111 28.1101C62.0756 28.1751 62.2252 28.2726 62.3509 28.397C62.4766 28.5214 62.5758 28.67 62.6424 28.8338C62.709 28.9976 62.7417 29.1732 62.7385 29.35C62.7417 29.5268 62.709 29.7025 62.6424 29.8663C62.5758 30.0301 62.4766 30.1787 62.3509 30.3031C62.2252 30.4275 62.0756 30.5252 61.9111 30.5901C61.7466 30.655 61.5707 30.6858 61.3939 30.6807ZM61.3939 28.2042C60.7193 28.2042 60.3173 28.7447 60.3173 29.35C60.3173 29.9553 60.7193 30.5005 61.3939 30.5005C62.0639 30.5005 62.4659 29.9553 62.4659 29.35C62.4659 28.7447 62.0639 28.2042 61.3939 28.2042Z" fill="black"/>
<path d="M61.6712 30.0801L61.4032 29.4747H61.1353V30.0801H60.932V28.6291H61.5372C61.6712 28.6291 61.9393 28.814 61.9393 29.0543C61.9439 29.1435 61.9205 29.232 61.8725 29.3074C61.8244 29.3827 61.7541 29.4412 61.6712 29.4747L61.9393 30.0801M61.4032 28.814H61.1353V29.2945H61.4032C61.6712 29.2945 61.6712 29.2345 61.6712 29.0543C61.6712 28.9295 61.6712 28.814 61.4032 28.814ZM43.651 37.1033C43.651 38.7945 44.9955 40.1852 46.7421 40.1852C48.3547 40.1852 49.8287 38.7945 49.8287 37.1033C49.801 36.294 49.4667 35.5253 48.8937 34.9531C48.3206 34.3809 47.5515 34.0479 46.7421 34.0214C45.925 34.0251 45.1423 34.3506 44.5636 34.9276C43.9849 35.5045 43.657 36.2862 43.651 37.1033ZM46.6035 42.6666C45.8756 42.6672 45.1547 42.5234 44.4828 42.2433C43.8109 41.9632 43.2013 41.5523 42.6894 41.0348C42.1775 40.5173 41.7734 39.9034 41.5006 39.2285C41.2279 38.5536 41.0918 37.8312 41.1004 37.1033C41.1004 34.0214 43.517 31.6002 46.6035 31.6002C47.8141 31.6002 48.8907 31.9052 49.8287 32.5659V31.7203H52.3839V42.4217H49.8287V41.7562C48.8661 42.3692 47.7445 42.6858 46.6035 42.6666ZM31.3001 37.1033C31.3001 38.7945 32.7787 40.1852 34.3913 40.1852C36.1378 40.1852 37.4824 38.7945 37.4824 37.1033C37.4764 36.2862 37.1484 35.5045 36.5698 34.9276C35.9911 34.3506 35.2084 34.0251 34.3913 34.0214C33.5814 34.0479 32.8118 34.3807 32.238 34.9528C31.6642 35.5249 31.3289 36.2936 31.3001 37.1033ZM37.4824 28.0331H40.167V42.4217H37.4824V41.7562C36.577 42.3848 35.4928 42.7041 34.3913 42.6666C31.3001 42.6666 28.7495 40.1853 28.7495 37.1033C28.7495 34.0214 31.3001 31.6002 34.3913 31.6002C35.5972 31.6002 36.6738 31.9052 37.4824 32.5659V28.0331Z" fill="black"/>
</svg>
