<svg width="110" height="73" viewBox="0 0 110 73" fill="none" xmlns="http://www.w3.org/2000/svg">
<path d="M21.2311 42.2215C19.6636 42.2215 18.9102 41.0219 19.3036 39.6342C20.1159 36.7581 25.3356 32.4961 28.8926 32.4961C31.4864 32.4961 31.2889 34.8064 29.7683 36.7771L28.9278 37.7033C25.9131 40.6482 23.1183 42.2215 21.2311 42.2215ZM33.9444 22.8268C29.4048 22.8286 24.4059 25.5931 21.2663 28.2112L21.5142 28.5689C26.3873 25.1684 33.149 22.9574 35.013 26.2739C35.9974 28.0235 34.3266 31.5569 31.9736 34.3495C32.5363 33.1162 32.1647 30.7483 28.8838 30.7483C23.4296 30.7483 12.6924 37.9405 12.6924 45.3012C12.6924 48.2496 14.7471 50.1732 18.1317 50.1732C27.1911 50.1732 39.4772 35.3908 39.4772 27.9663C39.4772 25.3436 37.9615 22.8268 33.9444 22.8268ZM45.6078 42.2215C45.0804 42.2215 44.6415 42.0383 44.3668 41.7038C44.0806 41.3532 43.9952 40.8563 44.131 40.3432C44.4324 39.2299 45.6378 38.3553 46.8774 38.3553H49.7931L48.7513 42.2215H45.6078ZM53.9875 30.6314C53.1537 29.6109 51.8038 29.1543 50.8377 29.1543H45.5395L44.6401 32.4933H49.6369L50.1157 32.5435C50.1206 32.5435 50.5744 32.5961 50.8275 32.9351C51.032 33.2187 51.062 33.6399 50.915 34.1923L50.6787 35.0711H47.5304C44.8206 35.0711 41.0429 37.0063 40.2006 40.1319C39.7818 41.6905 40.1488 43.0406 40.9625 44.0328C41.7699 45.0176 43.2936 45.5612 44.9397 45.5612H47.8554H47.8537H51.5594L53.2976 39.0997L54.577 34.3502C55.0794 32.4828 54.535 31.2965 53.9875 30.6314ZM90.3831 29.1543C88.9496 29.1543 87.6176 29.5765 86.5346 30.3756C85.4409 31.1817 84.8377 32.1504 84.4781 33.4865C83.6979 36.3823 85.9839 37.7798 87.8207 38.7705C89.1382 39.4809 90.2777 40.0936 90.0309 41.0012C89.8567 41.6526 89.5708 42.2226 87.9501 42.2226H83.0026L82.105 45.5612H87.5813C89.0497 45.5612 90.405 45.2569 91.4969 44.4224C92.5898 43.585 93.2075 42.4184 93.5893 40.9945C93.956 39.6395 93.7088 38.3452 92.8327 37.3793C92.1026 36.5683 91.0523 36.005 90.1268 35.5073C88.9408 34.8721 87.8225 34.2726 88.0178 33.5462C88.1373 33.1064 88.5755 32.4933 89.5334 32.4933H94.3463L95.246 29.1543H90.3831ZM61.6705 29.1543C60.2374 29.1543 58.9057 29.5765 57.8223 30.3756C56.7287 31.1817 56.1255 32.1504 55.7623 33.4865C54.9839 36.3823 57.2716 37.7798 59.1081 38.7705C60.4263 39.4809 61.563 40.0936 61.3187 41.0012C61.1427 41.6526 60.8582 42.2226 59.2375 42.2226H54.2907L53.3913 45.5612H58.8673C60.3375 45.5612 61.6924 45.2569 62.7843 44.4224C63.879 43.585 64.4953 42.4184 64.8771 40.9945C65.2423 39.6395 64.9948 38.3452 64.1222 37.3793C63.3921 36.5683 62.34 36.005 61.4128 35.5073C60.2286 34.8721 59.1116 34.2726 59.3073 33.5462C59.4247 33.1064 59.8647 32.4933 60.8209 32.4933H65.6309L66.532 29.1543H61.6705ZM68.4764 45.5612L72.7681 29.1543H69.1427L64.8475 45.5612H68.4764ZM82.4223 29.1543C76.0335 29.1771 72.6902 33.4124 71.629 37.3579C70.3717 42.0362 72.8735 45.5616 77.4487 45.5616H80.5146L81.4122 42.2229H78.3474C76.635 42.2229 74.2802 40.8815 75.2293 37.3579C75.9831 34.5573 78.7264 32.4936 81.7355 32.4936H83.6823L84.5817 29.1546H82.4223V29.1543ZM94.9897 44.813H95.3077V44.1026H95.5605C95.7294 44.1026 95.8489 44.1209 95.9145 44.1588C96.0276 44.2272 96.0869 44.3655 96.0869 44.5729V44.7168L96.0914 44.7747C96.095 44.7821 96.095 44.7877 96.0967 44.7958C96.0985 44.801 96.1003 44.806 96.102 44.8133H96.4003L96.3897 44.7898C96.3837 44.7751 96.3788 44.7431 96.3749 44.6961C96.3714 44.6484 96.3678 44.6049 96.3696 44.5634V44.4297C96.3678 44.3395 96.3382 44.2458 96.2712 44.1511C96.2057 44.056 96.1006 43.997 95.9585 43.9742C96.0699 43.9559 96.1588 43.9282 96.2205 43.8857C96.34 43.811 96.3985 43.692 96.3968 43.5316C96.3985 43.306 96.304 43.1536 96.1186 43.0754C96.0132 43.0329 95.8492 43.0112 95.6229 43.0112H94.99L94.9897 44.813ZM95.8986 43.8401C95.8319 43.8661 95.7311 43.8808 95.5957 43.8808H95.308V43.2277H95.5809C95.7569 43.2277 95.8855 43.2502 95.9642 43.2944C96.046 43.3404 96.0872 43.4281 96.0872 43.559C96.0868 43.6973 96.0223 43.7917 95.8986 43.8401ZM96.8234 42.7585C96.5001 42.4394 96.1098 42.2812 95.6532 42.2812C95.2009 42.2812 94.812 42.4394 94.4905 42.7585C94.1689 43.0785 94.0103 43.4657 94.0103 43.9159C94.0103 44.3722 94.1689 44.7607 94.4873 45.0808C94.8088 45.4008 95.1977 45.5623 95.6553 45.5623C96.1119 45.5623 96.5004 45.4008 96.8223 45.0808C97.1456 44.7579 97.3078 44.3711 97.3078 43.9159C97.3071 43.4628 97.1449 43.0757 96.8234 42.7585ZM96.6576 42.9171C96.9355 43.194 97.0726 43.5253 97.0726 43.9159C97.0726 44.3087 96.9355 44.6445 96.6576 44.9221C96.3834 45.1997 96.0491 45.3377 95.6546 45.3377C95.2608 45.3377 94.9262 45.1997 94.648 44.9221C94.3769 44.6445 94.2394 44.3087 94.2394 43.9159C94.2394 43.5257 94.3773 43.194 94.6516 42.9171C94.9297 42.6395 95.2643 42.5016 95.6532 42.5016C96.046 42.5019 96.3834 42.6395 96.6576 42.9171Z" fill="black"/>
</svg>
