<svg width="86" height="29" viewBox="0 0 86 29" fill="none" xmlns="http://www.w3.org/2000/svg">
<path d="M9.23106 20.2215C7.66357 20.2215 6.91015 19.0219 7.30361 17.6342C8.11591 14.7581 13.3356 10.4961 16.8926 10.4961C19.4864 10.4961 19.2889 12.8064 17.7683 14.7771L16.9278 15.7033C13.9131 18.6482 11.1183 20.2215 9.23106 20.2215ZM21.9444 0.826828C17.4048 0.828583 12.4059 3.59308 9.26632 6.21123L9.51417 6.56886C14.3873 3.16842 21.149 0.957385 23.013 4.27394C23.9974 6.02347 22.3266 9.55692 19.9736 12.3495C20.5363 11.1162 20.1647 8.74831 16.8838 8.74831C11.4296 8.74831 0.692383 15.9405 0.692383 23.3012C0.692383 26.2496 2.74711 28.1732 6.1317 28.1732C15.1911 28.1732 27.4772 13.3908 27.4772 5.96627C27.4772 3.34355 25.9615 0.826828 21.9444 0.826828ZM33.6078 20.2215C33.0804 20.2215 32.6415 20.0383 32.3668 19.7038C32.0806 19.3532 31.9952 18.8563 32.131 18.3432C32.4324 17.2299 33.6378 16.3553 34.8774 16.3553H37.7931L36.7513 20.2215H33.6078ZM41.9875 8.63145C41.1537 7.61086 39.8038 7.15426 38.8377 7.15426H33.5395L32.6401 10.4933H37.6369L38.1157 10.5435C38.1206 10.5435 38.5744 10.5961 38.8275 10.9351C39.032 11.2187 39.062 11.6399 38.915 12.1923L38.6787 13.0711H35.5304C32.8206 13.0711 29.0429 15.0063 28.2006 18.1319C27.7818 19.6905 28.1488 21.0406 28.9625 22.0328C29.7699 23.0176 31.2936 23.5612 32.9397 23.5612H35.8554H35.8537H39.5594L41.2976 17.0997L42.577 12.3502C43.0794 10.4828 42.535 9.29651 41.9875 8.63145ZM78.3831 7.15426C76.9496 7.15426 75.6176 7.57646 74.5346 8.3756C73.4409 9.18175 72.8377 10.1504 72.4781 11.4865C71.6978 14.3823 73.9839 15.7798 75.8207 16.7705C77.1382 17.4809 78.2777 18.0936 78.0309 19.0012C77.8567 19.6526 77.5708 20.2226 75.9501 20.2226H71.0026L70.105 23.5612H75.5813C77.0497 23.5612 78.405 23.2569 79.4969 22.4224C80.5898 21.585 81.2075 20.4184 81.5893 18.9945C81.956 17.6395 81.7088 16.3452 80.8327 15.3793C80.1026 14.5683 79.0523 14.005 78.1268 13.5073C76.9408 12.8721 75.8225 12.2726 76.0178 11.5462C76.1373 11.1064 76.5755 10.4933 77.5334 10.4933H82.3463L83.246 7.15426H78.3831ZM49.6705 7.15426C48.2374 7.15426 46.9057 7.57646 45.8223 8.3756C44.7287 9.18175 44.1255 10.1504 43.7623 11.4865C42.9839 14.3823 45.2716 15.7798 47.1081 16.7705C48.4263 17.4809 49.563 18.0936 49.3187 19.0012C49.1428 19.6526 48.8582 20.2226 47.2375 20.2226H42.2907L41.3913 23.5612H46.8673C48.3375 23.5612 49.6924 23.2569 50.7843 22.4224C51.879 21.585 52.4953 20.4184 52.8771 18.9945C53.2423 17.6395 52.9948 16.3452 52.1222 15.3793C51.3921 14.5683 50.34 14.005 49.4128 13.5073C48.2286 12.8721 47.1116 12.2726 47.3073 11.5462C47.4247 11.1064 47.8647 10.4933 48.8209 10.4933H53.6309L54.532 7.15426H49.6705ZM56.4764 23.5612L60.7681 7.15426H57.1427L52.8475 23.5612H56.4764ZM70.4223 7.15426C64.0335 7.17707 60.6902 11.4124 59.629 15.3579C58.3717 20.0362 60.8735 23.5616 65.4487 23.5616H68.5146L69.4122 20.2229H66.3474C64.635 20.2229 62.2802 18.8815 63.2293 15.3579C63.9831 12.5573 66.7264 10.4936 69.7355 10.4936H71.6823L72.5817 7.15461L70.4223 7.15426ZM82.9897 22.813H83.3077V22.1026H83.5605C83.7294 22.1026 83.8489 22.1209 83.9145 22.1588C84.0276 22.2272 84.0869 22.3655 84.0869 22.5729V22.7168L84.0914 22.7747C84.095 22.7821 84.095 22.7877 84.0967 22.7958C84.0985 22.801 84.1002 22.806 84.102 22.8133H84.4003L84.3897 22.7898C84.3837 22.7751 84.3788 22.7431 84.3749 22.6961C84.3714 22.6484 84.3678 22.6049 84.3696 22.5634V22.4297C84.3678 22.3395 84.3382 22.2458 84.2712 22.1511C84.2057 22.056 84.1006 21.997 83.9585 21.9742C84.0699 21.9559 84.1588 21.9282 84.2205 21.8857C84.34 21.811 84.3985 21.692 84.3968 21.5316C84.3985 21.306 84.304 21.1536 84.1186 21.0754C84.0132 21.0329 83.8492 21.0112 83.6229 21.0112H82.99L82.9897 22.813ZM83.8986 21.8401C83.8319 21.8661 83.7311 21.8808 83.5957 21.8808H83.308V21.2277H83.5809C83.7569 21.2277 83.8855 21.2502 83.9642 21.2944C84.046 21.3404 84.0872 21.4281 84.0872 21.559C84.0869 21.6973 84.0223 21.7917 83.8986 21.8401ZM84.8234 20.7585C84.5001 20.4394 84.1098 20.2812 83.6532 20.2812C83.2009 20.2812 82.812 20.4394 82.4905 20.7585C82.1689 21.0785 82.0103 21.4656 82.0103 21.9159C82.0103 22.3722 82.1689 22.7607 82.4873 23.0808C82.8088 23.4008 83.1977 23.5623 83.6553 23.5623C84.1119 23.5623 84.5004 23.4008 84.8223 23.0808C85.1456 22.7579 85.3078 22.3711 85.3078 21.9159C85.3071 21.4628 85.1449 21.0757 84.8234 20.7585ZM84.6576 20.9171C84.9355 21.194 85.0726 21.5253 85.0726 21.9159C85.0726 22.3087 84.9355 22.6445 84.6576 22.9221C84.3834 23.1997 84.0491 23.3377 83.6546 23.3377C83.2608 23.3377 82.9262 23.1997 82.648 22.9221C82.3769 22.6445 82.2394 22.3087 82.2394 21.9159C82.2394 21.5257 82.3773 21.194 82.6516 20.9171C82.9297 20.6395 83.2643 20.5016 83.6532 20.5016C84.046 20.5019 84.3834 20.6395 84.6576 20.9171Z" fill="black"/>
</svg>
