<svg width="89" height="59" viewBox="0 0 89 59" fill="none" xmlns="http://www.w3.org/2000/svg">
<path d="M50.0831 23.9675L37.271 38.1016H48.2572L61.0693 23.9675L48.2572 9.83333H37.271L50.0831 23.9675Z" fill="black"/>
<path d="M33.3907 20.9441L27.6055 19.0456L31.2325 24.0482L27.6654 29.0208L33.3907 27.1222L36.8678 32.1249V25.9468L42.7129 24.0482L36.8678 22.1195V15.9716L33.3907 20.9441ZM18.9768 44.027C19.4838 44.027 19.9821 44.2713 20.3142 44.6815L20.4366 44.8298L22.0011 43.7565L21.8612 43.5821C21.1708 42.718 20.1132 42.2207 18.9768 42.2207C16.9753 42.2207 15.3408 43.7828 15.3408 45.6937C15.3408 47.6046 16.9753 49.1667 18.9768 49.1667C20.1044 49.1667 21.1533 48.678 21.8438 47.8316L21.9836 47.6571L20.419 46.5837L20.2967 46.7321C19.9558 47.1423 19.4751 47.3778 18.9682 47.3778C18.0416 47.3778 17.255 46.6099 17.255 45.7024C17.2638 44.7949 18.0503 44.027 18.9768 44.027ZM35.7789 46.0807L32.9671 42.3823H31.1793V48.9244H32.915V45.2608L35.5359 48.9244H37.5147V42.3823H35.7789V46.0807ZM42.4887 47.0402C42.4887 47.0926 42.4187 47.1013 42.3837 47.1013C42.3574 47.1013 42.3049 47.0926 42.2787 47.0315L40.8265 42.3823H38.8142L40.9577 48.9244H43.8184L45.9619 42.3823H43.9496L42.4887 47.0402ZM58.7357 46.2465C59.4371 45.8452 59.8403 45.1125 59.779 44.31C59.7001 43.2197 58.7444 42.3823 57.6047 42.3823H54.2466V48.9244H56.0002V46.5692H56.7892C56.8681 46.5692 56.9382 46.5779 56.9909 46.6477L58.1219 48.9244H60.0946L58.7357 46.2465ZM57.5118 44.886H55.9523V44.1591H57.5118C57.7244 44.1591 57.9016 44.3045 57.9016 44.5226C57.9016 44.7407 57.7244 44.886 57.5118 44.886ZM68.4606 48.9244H73.6589V47.1798H70.1933V46.3948H73.3123V44.8247H70.1933V44.1268H73.6589V42.3823H68.4606V48.9244ZM64.455 44.8689C63.523 44.6605 63.2529 44.5216 63.2529 44.2177V44.2003C63.2529 43.9572 63.4358 43.7662 63.8888 43.7662C64.4899 43.7662 64.9777 43.9572 65.631 44.348L66.6763 43.1151C65.9446 42.5333 65.0648 42.2207 63.9237 42.2207C62.3034 42.2207 61.3365 43.1237 61.3365 44.374V44.3913C61.3365 45.7719 62.4777 46.1799 63.915 46.5011C64.8295 46.7095 65.0821 46.8658 65.0821 47.1436V47.161C65.0821 47.4475 64.7599 47.6212 64.2546 47.6212C63.4707 47.6212 62.7041 47.3434 62.0421 46.8137L60.9881 48.0553C61.8156 48.7933 63.0177 49.1667 64.2111 49.1667C65.8487 49.1667 66.9986 48.3505 66.9986 46.9787V46.9613C66.9986 45.7024 66.0056 45.2075 64.455 44.8689ZM26.2653 42.2207C24.316 42.2207 22.7321 43.7828 22.7321 45.6937C22.7321 47.6134 24.316 49.1667 26.2653 49.1667C28.2147 49.1667 29.7985 47.6046 29.7985 45.6937C29.7985 43.774 28.2147 42.2207 26.2653 42.2207ZM26.2653 47.3898C25.3451 47.3898 24.6002 46.6491 24.6002 45.7341C24.6002 44.8191 25.3451 44.0784 26.2653 44.0784C27.1855 44.0784 27.9304 44.8191 27.9304 45.7341C27.9304 46.6491 27.1855 47.3898 26.2653 47.3898ZM47.2614 48.9244H52.4597V47.1798H48.9942V46.3948H52.1131V44.8247H48.9942V44.1268H52.4597V42.3823H47.2614V48.9244Z" fill="black"/>
</svg>
