<svg width="87" height="58" viewBox="0 0 87 58" fill="none" xmlns="http://www.w3.org/2000/svg">
<g clip-path="url(#clip0_77_751)">
<mask id="mask0_77_751" style="mask-type:luminance" maskUnits="userSpaceOnUse" x="-26" y="-67" width="136" height="191">
<path d="M-25.6636 -66.6786H109.007V123.783H-25.6636V-66.6786Z" fill="white"/>
</mask>
<g mask="url(#mask0_77_751)">
<path d="M75.1855 46.8513H75.4525V46.2496L75.759 46.2534C75.8391 46.2534 75.9731 46.3566 75.9841 46.4941C75.9916 46.591 75.9765 46.8466 76.0242 46.8466H76.2979C76.2509 46.8301 76.2273 46.5957 76.2106 46.4247C76.19 46.1996 76.0296 46.1389 75.9916 46.1222C76.0427 46.1181 76.276 46.0018 76.276 45.7881C76.276 45.5591 76.0814 45.3591 75.8299 45.3591V45.3607H75.1855V46.8513ZM75.4525 45.5883H75.7674C75.8984 45.5883 76.0027 45.7136 76.0027 45.81C76.0027 45.905 75.9201 46.0335 75.7674 46.0335V46.034L75.4527 46.0324L75.4525 45.5883Z" fill="black"/>
<path d="M74.4771 46.1093C74.4833 46.4347 74.6169 46.7446 74.8492 46.9725C75.0815 47.2004 75.3939 47.3281 75.7194 47.3281C76.0448 47.3281 76.3572 47.2004 76.5895 46.9725C76.8218 46.7446 76.9554 46.4347 76.9616 46.1093C76.9554 45.784 76.8218 45.474 76.5895 45.2461C76.3572 45.0182 76.0448 44.8906 75.7194 44.8906C75.3939 44.8906 75.0815 45.0182 74.8492 45.2461C74.6169 45.474 74.4833 45.784 74.4771 46.1093ZM76.8374 46.1093C76.8374 46.2562 76.8085 46.4016 76.7523 46.5373C76.6961 46.6729 76.6137 46.7962 76.5098 46.9C76.4059 47.0038 76.2826 47.0862 76.1469 47.1423C76.0112 47.1984 75.8658 47.2272 75.7189 47.2271C75.4224 47.2271 75.1381 47.1093 74.9285 46.8997C74.7189 46.6901 74.6011 46.4058 74.6011 46.1093C74.6011 45.8128 74.7189 45.5285 74.9285 45.3189C75.1381 45.1093 75.4224 44.9915 75.7189 44.9915C75.8658 44.9913 76.0112 45.0201 76.147 45.0762C76.2827 45.1323 76.4061 45.2146 76.51 45.3185C76.6138 45.4223 76.6962 45.5456 76.7524 45.6813C76.8086 45.817 76.8375 45.9624 76.8374 46.1093ZM45.9611 41.3987C46.2156 41.0999 46.364 40.6967 46.364 40.2764V38.7278H38.443V40.451H42.8167L38.9843 44.6902C38.7319 44.9906 38.5604 45.3569 38.5604 45.7842V47.3595H46.4755V45.6378H42.131L45.9611 41.3987ZM65.8545 38.7278C64.8976 38.7278 64.1116 39.5006 64.1116 40.4558V45.6306C64.1116 46.5837 64.8978 47.3592 65.8545 47.3592H72.0191C72.9736 47.3592 73.7369 46.5837 73.7369 45.6308V40.4558C73.7369 39.5006 72.9736 38.7278 72.0191 38.7278H65.8545ZM69.5806 40.4508C69.694 40.4507 69.8063 40.473 69.911 40.5165C70.0158 40.56 70.1109 40.6237 70.191 40.7041C70.271 40.7844 70.3344 40.8798 70.3774 40.9847C70.4205 41.0897 70.4424 41.2021 70.4418 41.3155V44.7723C70.4418 45.2485 70.057 45.6378 69.5797 45.6378H68.2775C68.0479 45.6375 67.8278 45.5462 67.6654 45.384C67.503 45.2218 67.4114 45.0018 67.4108 44.7723V41.3155C67.4111 41.0859 67.5026 40.8659 67.6651 40.7038C67.8275 40.5417 68.0477 40.4507 68.2773 40.4508H69.5806ZM34.1222 38.7278H37.4224V45.6326C37.4224 46.586 36.6582 47.3592 35.704 47.3592H34.1222V38.7278ZM49.243 47.3595C48.2892 47.3595 47.5063 46.5835 47.5063 45.6306V38.7281H50.8047V44.7689C50.8047 45.2471 51.2018 45.6381 51.6771 45.6381H52.7363C53.215 45.6381 53.5892 45.2487 53.5892 44.7723V38.7281H61.2568C62.2099 38.7281 62.978 39.5002 62.978 40.4547V47.3592H59.6789V41.3118C59.6787 41.1984 59.6562 41.0862 59.6127 40.9815C59.5691 40.8768 59.5052 40.7817 59.4248 40.7017C59.3444 40.6218 59.249 40.5585 59.144 40.5154C59.0391 40.4724 58.9267 40.4505 58.8133 40.451H56.8892V45.6306C56.8892 46.5837 56.1277 47.3595 55.1719 47.3595H49.243ZM29.2709 35.759C28.0334 35.759 26.9285 36.3223 26.1968 37.2064L17.7783 47.3592H22.5552L28.9415 39.6624C29.1865 39.3693 29.4929 39.1337 29.8391 38.9722C30.1853 38.8108 30.5628 38.7274 30.9448 38.7281H32.6295L25.5019 47.3592H30.6251C31.8201 47.3592 32.7793 46.3912 32.7793 45.1976V35.7592L29.2709 35.759Z" fill="black"/>
<path d="M18.4558 37.2066L10.0391 47.3595H14.8125L21.1984 39.6624C21.4434 39.3698 21.7496 39.1346 22.0954 38.9731C22.4412 38.8117 22.8182 38.728 23.1999 38.7281H24.9378V35.7592H21.5278C20.9406 35.7585 20.3605 35.8879 19.8293 36.1382C19.2982 36.3885 18.8291 36.7534 18.4558 37.2066Z" fill="black"/>
<path fill-rule="evenodd" clip-rule="evenodd" d="M47.3027 35.759C46.51 33.215 45.3402 27.5165 50.3722 23.9841C53.968 21.4616 64.8805 18.4806 70.727 16.3382L74.9297 10.6408C70.9206 12.6983 65.7191 14.8059 60.975 16.2597C50.4003 19.5 44.0753 21.4223 35.9278 21.582C30.0632 21.6974 29.9825 18.9299 35.6891 13.967C29.282 16.4535 20.3224 19.4002 10.0386 21.7019C19.2123 21.9598 26.1777 23.8248 30.3632 26.2559C36.3244 29.7184 37.7696 33.3546 38.4426 35.759H47.3027ZM36.2599 25.2279C39.1195 25.33 41.3146 25.1053 45.3047 24.2334C43.4224 25.6367 41.7617 28.1925 41.5746 30.146C40.5832 28.6623 38.2874 26.3575 36.2599 25.2279Z" fill="black"/>
</g>
</g>
<defs>
<clipPath id="clip0_77_751">
<rect width="87" height="58" fill="white"/>
</clipPath>
</defs>
</svg>
