<svg width="81" height="37" viewBox="0 0 81 37" fill="none" xmlns="http://www.w3.org/2000/svg">
<mask id="mask0_77_715" style="mask-type:luminance" maskUnits="userSpaceOnUse" x="0" y="0" width="81" height="23">
<path d="M80.9362 0H0.0615234V22.9336H80.9362V0Z" fill="white"/>
</mask>
<g mask="url(#mask0_77_715)">
<path d="M62.8397 6.36442C61.6657 2.49691 55.2151 -0.0949978 45.4044 -6.39865e-06C43.6905 0.027134 42.0442 0.108555 40.4923 0.257828C33.6369 0.936337 28.3334 2.9583 24.204 6.3237C17.8074 6.21514 10.2368 7.68073 6.18834 9.49913C-4.9719 14.5608 -0.855969 22.8522 18.3337 22.8522C25.1891 22.8522 33.367 21.1016 38.8864 16.6371H40.2089C40.2763 16.827 40.3708 17.0034 40.4788 17.1799C42.0172 19.7853 46.5784 21.6309 52.0034 22.3908C59.5875 23.3814 67.7789 23.2864 75.6059 19.3647C84.7824 14.7779 83.082 6.74438 62.8397 6.36442ZM70.4778 17.7905C64.837 19.8803 58.0896 20.0839 52.0978 18.9847C44.1494 17.6005 43.1103 13.8416 48.8051 11.304C50.9778 10.3541 53.0425 9.82481 54.7563 9.5127C56.5241 9.21416 54.6079 7.30076 52.0439 7.64001C44.9725 8.57636 41.9362 11.1411 40.8836 13.7059C37.0106 14.0994 32.2199 13.0681 28.9812 11.2225C27.7801 10.544 26.8085 10.3541 24.204 10.2591C22.841 10.2048 22.7195 10.4898 23.4078 11.399C25.7424 13.3395 29.2241 15.3615 33.7448 16.04C30.6005 18.2248 26.3631 19.7582 19.3998 19.7582C4.97381 19.7582 1.14127 15.0222 9.56206 11.6025C14.7711 9.47199 18.4147 9.28201 21.8694 9.09202C26.9434 8.80705 31.5857 9.85195 34.7839 11.5075C35.9985 12.1317 36.7542 11.9146 38.495 11.9825C40.2089 12.0503 40.3843 11.7246 39.2777 10.6255C36.4303 7.85714 33.313 7.1922 29.7639 6.39156C32.139 3.74537 38.1576 3.08043 43.9469 2.9583C56.2003 2.70046 61.0179 6.39156 56.0653 10.1776C54.8508 11.1276 52.7456 11.7789 51.2747 12.1996C49.2369 12.8238 49.2099 13.2174 48.5487 14.2758C48.0764 14.9815 48.9805 15.4836 49.9791 15.2258C54.8238 15.1443 60.6671 11.4804 62.084 9.15988C65.9706 9.1056 69.6546 9.47199 72.5965 10.1776C77.5896 11.399 78.8716 14.7101 70.4778 17.7905Z" fill="black"/>
</g>
<path d="M74.3795 36.9935C74.2562 36.9739 74.1393 36.9543 74.016 36.9478C73.5031 36.9086 73.0033 36.8237 72.5359 36.6083C71.8867 36.3146 71.4842 35.825 71.4128 35.1069C71.3868 34.8523 71.3868 34.5912 71.4193 34.3431C71.4777 33.9514 71.5751 33.5728 71.653 33.1811C72.6008 33.1811 73.5226 33.1811 74.4769 33.1811C74.4314 33.4488 74.3925 33.6968 74.3535 33.9449C74.3146 34.1538 74.3146 34.3627 74.373 34.5651C74.4574 34.8588 74.6457 35.0416 74.9443 35.1134C75.5935 35.2701 76.2816 34.911 76.5348 34.2844C76.6841 33.9123 76.6711 33.5467 76.4374 33.2203C76.2751 32.9918 76.0804 32.7699 75.8661 32.5871C75.5286 32.2933 75.152 32.0452 74.8015 31.7711C74.5353 31.5687 74.2756 31.3663 74.0225 31.1509C73.8537 31.0073 73.6979 30.8376 73.5486 30.6744C73.0617 30.126 72.8864 29.4667 72.9773 28.7486C73.1656 27.3255 73.9576 26.3398 75.2624 25.8306C76.5478 25.3279 77.8851 25.3083 79.2159 25.6804C79.6443 25.7979 80.0338 26.0068 80.3649 26.3137C80.7155 26.6335 80.9362 27.0252 80.9881 27.5017C80.9946 27.5801 81.0076 27.6584 80.9946 27.7368C80.9232 28.1219 80.8453 28.5071 80.7674 28.9053C79.8586 28.9053 78.9692 28.9053 78.0668 28.9053C78.0733 28.8465 78.0733 28.8008 78.0798 28.7486C78.1123 28.5593 78.1512 28.37 78.1707 28.1741C78.2097 27.6845 77.963 27.3647 77.4761 27.3059C77.2878 27.2798 77.0866 27.2733 76.8983 27.3059C76.4049 27.3777 76.0154 27.8216 75.9895 28.3112C75.97 28.6115 76.0674 28.8596 76.3011 29.0489C76.6971 29.3688 77.0996 29.6886 77.4891 30.015C77.8721 30.3414 78.2486 30.6744 78.6121 31.0203C78.7939 31.1901 78.9497 31.3859 79.099 31.5818C79.547 32.1627 79.6898 32.8221 79.534 33.5336C79.4691 33.8404 79.3912 34.1538 79.2808 34.4541C78.7939 35.7923 77.8396 36.5822 76.4504 36.8499C76.1583 36.9086 75.8531 36.9217 75.5545 36.9608C75.4701 36.9739 75.3922 36.9869 75.3078 37C74.9962 36.9935 74.6846 36.9935 74.3795 36.9935Z" fill="black"/>
<path d="M27.3528 25.6739C28.781 25.6739 30.1897 25.6739 31.6309 25.6739C31.6504 25.9481 31.6374 26.2157 31.6439 26.4834C31.6439 26.7641 31.6439 27.0448 31.6504 27.319C31.6504 27.5931 31.6504 27.8608 31.6504 28.135C31.6504 28.4091 31.6504 28.6768 31.6504 28.951C31.6504 29.2251 31.6504 29.4928 31.6569 29.767C31.6569 30.0477 31.6569 30.3284 31.6634 30.6026C31.6634 30.8767 31.6699 31.1444 31.6699 31.4186C31.6699 31.6862 31.6699 31.9604 31.6699 32.2607C31.7932 32.2019 31.8127 32.1171 31.8451 32.0518C32.8708 30.1652 33.89 28.2786 34.9092 26.3855C35.0131 26.1896 35.1235 25.9938 35.2273 25.7914C35.2728 25.7 35.3377 25.6543 35.4416 25.6543C36.7983 25.6609 38.1616 25.6609 39.5184 25.6609C39.5314 25.6609 39.5509 25.6674 39.5638 25.6739C39.5703 25.8632 36.8827 36.1187 36.6555 36.765C35.8051 36.7715 34.9482 36.765 34.0523 36.765C34.721 34.1734 35.3831 31.6209 36.0453 29.0619C36.0323 29.0554 36.0193 29.0489 36.0063 29.0424C35.9609 29.1142 35.9155 29.186 35.8765 29.2643C34.5782 31.6797 33.2798 34.1016 31.9815 36.5169C31.9555 36.5626 31.9295 36.6083 31.9036 36.6605C31.8711 36.7324 31.8192 36.7715 31.7413 36.765C30.9817 36.7585 30.2287 36.7585 29.4691 36.7519C29.4627 36.7519 29.4562 36.7454 29.4172 36.7258C29.4107 35.4725 29.4626 34.1995 29.4821 32.9331C29.5016 31.6666 29.5406 30.4067 29.5406 29.1338C29.3198 29.7474 29.177 30.3806 29.0017 31.0073C28.8265 31.6405 28.6577 32.2803 28.4889 32.92C28.3201 33.5597 28.1513 34.193 27.976 34.8327C27.8073 35.4659 27.6385 36.1057 27.4632 36.7519C26.444 36.7519 25.4378 36.7519 24.3926 36.7519C25.3988 33.0506 26.3726 29.3688 27.3528 25.6739Z" fill="black"/>
<path d="M3.76193 36.9543C3.00239 36.9543 2.35971 36.9217 1.7365 36.7519C1.43788 36.6736 1.14575 36.5692 0.879585 36.3994C0.327785 36.0534 0.0356558 35.5508 0.00319696 34.898C-0.0162783 34.4671 0.0551311 34.0493 0.165491 33.6315C0.626406 31.9147 1.08732 30.2043 1.54175 28.4875C1.82089 27.4365 2.4441 26.6466 3.36593 26.0917C4.06704 25.6674 4.82658 25.4324 5.63156 25.3149C6.48847 25.1974 7.33889 25.1908 8.18931 25.3867C8.53987 25.465 8.87095 25.5825 9.18255 25.7653C9.99402 26.2353 10.3835 27.0187 10.2147 27.9457C10.1174 28.4679 9.96806 28.9836 9.83173 29.5058C9.4617 30.8898 9.08517 32.2737 8.70865 33.6577C8.5139 34.3823 8.1958 35.0416 7.67646 35.5834C7.09221 36.1905 6.37162 36.5365 5.57313 36.7454C4.94343 36.9086 4.30075 36.9608 3.76193 36.9543ZM4.14494 35.1917C4.82658 35.2113 5.28749 34.9045 5.52769 34.2713C5.61208 34.0493 5.68998 33.8209 5.7549 33.5859C5.95614 32.8482 6.1509 32.104 6.34565 31.3598C6.59234 30.4198 6.83253 29.4863 7.07273 28.5462C7.13765 28.2916 7.16361 28.0305 7.11168 27.7629C7.04027 27.4365 6.8585 27.2276 6.53391 27.1427C5.91719 26.9795 5.2031 27.2602 4.85904 27.8216C4.76166 27.9848 4.68376 28.1676 4.63182 28.3504C4.17091 30.015 3.71649 31.6862 3.26855 33.3574C3.18416 33.6642 3.12574 33.9775 3.08679 34.2909C3.03485 34.7609 3.25557 35.0481 3.70999 35.1395C3.85281 35.1656 4.00212 35.1787 4.14494 35.1917Z" fill="black"/>
<path d="M63.2525 25.6804C63.1616 25.7914 63.1032 25.8632 63.0448 25.935C61.7789 27.4626 60.513 28.9901 59.2406 30.5112C59.1238 30.6548 59.0978 30.7788 59.1432 30.9485C59.6106 32.8025 60.0716 34.663 60.5325 36.5235C60.5519 36.5887 60.5584 36.6605 60.5779 36.7454C60.5195 36.7585 60.474 36.7715 60.4221 36.7715C59.5262 36.7715 58.6304 36.7715 57.7345 36.7715C57.5528 36.7715 57.5463 36.765 57.4943 36.5692C57.0789 35.0808 56.6699 33.5989 56.2609 32.1105C56.2349 32.0126 56.2025 31.9212 56.1505 31.8233C55.6831 33.4618 55.2676 35.1004 54.8327 36.7324C54.6379 36.7846 51.9828 36.7911 51.7231 36.7389C52.6969 33.0506 53.6642 29.3688 54.6379 25.6804C55.6766 25.6804 56.7023 25.6804 57.7605 25.6804C57.3775 27.1166 57.001 28.5332 56.6114 29.9824C56.7283 29.9498 56.7608 29.8714 56.8062 29.8127C57.8514 28.5332 58.8965 27.2602 59.9352 25.9807C59.9677 25.9416 60.0066 25.9024 60.0391 25.8567C60.13 25.7065 60.2533 25.6609 60.4221 25.6674C61.0453 25.6804 61.675 25.6739 62.2982 25.6739C62.5384 25.6739 62.7786 25.6739 63.0188 25.6739C63.0902 25.6674 63.1487 25.6739 63.2525 25.6804Z" fill="black"/>
<path d="M63.9794 25.6804C64.9597 25.6804 65.927 25.6804 66.9267 25.6804C66.9072 25.7718 66.8942 25.8567 66.8748 25.935C66.2451 28.3569 65.6154 30.7788 64.9857 33.2072C64.8883 33.5728 64.8169 33.9449 64.8169 34.33C64.8169 34.8458 64.9987 35.0808 65.4985 35.1526C65.7452 35.1852 66.0049 35.1787 66.2581 35.1526C66.6476 35.1134 66.9397 34.8915 67.1085 34.5455C67.2448 34.2778 67.3552 33.9906 67.4331 33.7034C68.1212 31.1183 68.7963 28.5332 69.4715 25.9416C69.4909 25.8567 69.5169 25.7784 69.5429 25.687C70.5296 25.687 71.5164 25.687 72.5226 25.687C72.4252 26.0591 72.3343 26.4181 72.2435 26.7771C71.6397 29.1011 71.0425 31.4316 70.4323 33.7556C70.0752 35.1199 69.2443 36.0665 67.9264 36.5561C67.6213 36.6671 67.3097 36.7585 66.9916 36.8172C65.8945 37.0196 64.7974 37.0196 63.7003 36.8042C63.3497 36.7324 63.0122 36.6214 62.7071 36.4386C62.1293 36.0991 61.8177 35.5965 61.7722 34.9241C61.7463 34.5063 61.7982 34.1016 61.9021 33.7034C62.5707 31.0987 63.2459 28.494 63.9145 25.8893C63.934 25.8175 63.9535 25.7522 63.9794 25.6804Z" fill="black"/>
<path d="M42.0891 32.4761C41.7061 33.9188 41.3296 35.3354 40.9531 36.7519C39.9079 36.7519 38.8757 36.7519 37.811 36.7519C38.7913 33.0505 39.7715 29.3688 40.7518 25.6739C40.8232 25.6674 40.8816 25.6608 40.9466 25.6608C42.3747 25.6608 43.8029 25.6608 45.2311 25.6608C45.7829 25.6608 46.3282 25.7196 46.8476 25.9024C47.1137 25.9938 47.3799 26.1178 47.6201 26.2679C48.1849 26.6335 48.464 27.1753 48.516 27.8412C48.5679 28.5071 48.4121 29.1337 48.1979 29.7539C47.8473 30.7788 47.1657 31.4838 46.1724 31.8886C45.5622 32.1366 44.9195 32.2933 44.2639 32.3521C43.6406 32.4108 43.0174 32.4304 42.3942 32.463C42.3033 32.4826 42.2125 32.4761 42.0891 32.4761ZM42.589 30.6091C43.1408 30.6417 43.6536 30.6678 44.16 30.5307C44.5819 30.4198 44.9065 30.1717 45.1208 29.7865C45.3545 29.3688 45.4778 28.9118 45.4973 28.4352C45.5168 27.9587 45.296 27.678 44.8351 27.554C44.7897 27.5409 44.7442 27.5344 44.6988 27.5279C44.2833 27.4495 43.8679 27.4822 43.4524 27.5017C43.4264 27.5017 43.4004 27.5213 43.368 27.5409C43.1148 28.5462 42.8551 29.5581 42.589 30.6091Z" fill="black"/>
<path d="M17.2388 25.6739C18.245 25.6739 19.2123 25.6739 20.2185 25.6739C20.4457 26.9469 20.6664 28.2264 20.9066 29.5515C20.991 29.4406 21.0429 29.3753 21.0949 29.31C21.8999 28.1611 22.7113 27.0187 23.5098 25.8632C23.6072 25.7196 23.7046 25.6543 23.8863 25.6608C24.6913 25.6739 25.4898 25.6674 26.2948 25.6674C26.3662 25.6674 26.4441 25.6674 26.5609 25.6674C26.4895 25.7718 26.4441 25.8436 26.3986 25.9089C24.8731 27.9391 23.341 29.9693 21.8155 31.9995C21.7116 32.1366 21.6402 32.2802 21.5947 32.45C21.2507 33.8078 20.9001 35.1722 20.5496 36.53C20.5301 36.6018 20.5106 36.6801 20.4847 36.7585C19.4654 36.7585 18.4592 36.7585 17.4205 36.7585C17.44 36.6605 17.4595 36.5822 17.479 36.5039C17.8425 35.1395 18.206 33.7752 18.5761 32.4173C18.615 32.2672 18.6215 32.1301 18.5891 31.98C18.1541 29.9563 17.7192 27.9326 17.2842 25.9089C17.2647 25.8436 17.2518 25.7718 17.2388 25.6739Z" fill="black"/>
<path d="M16.1289 36.7585C13.8243 36.7585 11.5327 36.7585 9.20215 36.7585C9.52024 35.5181 9.85782 34.2974 10.1824 33.0701C10.5135 31.8363 10.8446 30.596 11.1756 29.3622C11.5067 28.135 11.8313 26.9077 12.1624 25.6804C13.1816 25.6804 14.1813 25.6804 15.207 25.6804C14.4021 28.6898 13.6036 31.6862 12.7986 34.7217C13.1491 34.7217 13.4672 34.7283 13.7853 34.7283C14.1034 34.7283 14.4215 34.7283 14.7331 34.7283C15.0577 34.7283 15.3823 34.7283 15.7069 34.7283C16.0185 34.7283 16.3366 34.7283 16.6807 34.7283C16.4924 35.4268 16.3171 36.0861 16.1289 36.7585Z" fill="black"/>
<path d="M50.4964 36.7585C49.4382 36.7585 48.419 36.7585 47.3608 36.7585C48.3411 33.0571 49.3149 29.3753 50.2886 25.6804C51.3143 25.6804 52.3335 25.6804 53.3852 25.6804C52.4244 29.3753 51.4636 33.0571 50.4964 36.7585Z" fill="black"/>
</svg>
