<svg width="77" height="39" viewBox="0 0 77 39" fill="none" xmlns="http://www.w3.org/2000/svg">
<path d="M41.3378 0.129607C41.0869 0.16831 40.8456 1.09226 40.3607 1.57359C40.006 1.92096 39.5633 1.89923 39.3281 2.32869C39.2389 2.48914 39.2678 2.763 39.1665 3.02596C38.9686 3.55188 38.2715 3.5989 38.2715 4.17192C38.269 4.79074 38.8529 4.90893 39.3583 5.348C39.7528 5.70144 39.7914 5.94509 40.269 6.11636C40.6768 6.25515 41.2835 5.80153 41.8299 5.9644C42.2787 6.09835 42.7081 6.1948 42.8095 6.65561C42.8987 7.08022 42.8034 7.73879 42.2594 7.66285C42.076 7.64233 41.2811 7.37452 40.304 7.47825C39.1254 7.6122 37.7804 7.9969 37.649 9.31065C37.5766 10.0452 38.4849 10.9114 39.3619 10.7352C39.9686 10.6157 39.6816 9.90056 40.0121 9.55309C40.4451 9.10804 42.8987 11.1068 45.1797 11.1068C46.14 11.1068 46.854 10.8643 47.5634 10.1213C47.6297 10.0645 47.7105 9.94272 47.813 9.93545C47.9096 9.94272 48.0784 10.038 48.1339 10.079C49.9711 11.5555 51.3595 14.5169 58.111 14.5519C59.0604 14.5567 60.1423 15.0103 61.0253 15.816C61.8131 16.5447 62.2739 17.6773 62.7213 18.8269C63.3969 20.5519 64.608 22.2298 66.4439 24.0971C66.5441 24.1972 68.0555 25.3722 68.1761 25.4602C68.1954 25.4723 68.3064 25.7377 68.2679 25.886C68.2232 27.0054 68.0604 30.2611 70.4873 30.4083C71.0809 30.4384 70.9252 30.0211 70.9252 29.734C70.9241 29.167 70.8203 28.6037 71.1195 28.0235C71.5283 27.225 70.2522 26.857 70.2896 25.1309C70.3161 23.8438 69.2352 24.0633 68.6864 23.0826C68.3703 22.5144 68.0893 22.2129 68.1098 21.518C68.2328 17.6074 67.2775 15.038 66.801 14.4071C66.4295 13.9307 66.1219 13.7413 66.462 13.5205C68.4874 12.1828 68.947 10.9378 68.947 10.9378C70.0241 8.40592 70.9928 6.09341 72.3281 5.07543C72.5972 4.86546 73.2871 4.35045 73.7105 4.14776C74.9566 3.56028 75.6128 3.2045 75.9747 2.85219C76.5477 2.29371 77 1.12966 76.4511 0.423996C75.7684 -0.446963 74.5875 0.244245 74.0664 0.553007C70.3427 2.763 69.7938 6.66158 68.5042 8.9005C67.4753 10.6893 65.8022 12.003 64.3065 12.1104C63.1846 12.1936 61.9759 11.9668 60.7721 11.4385C57.8444 10.155 56.2424 8.49762 55.8649 8.20453C55.0784 7.59774 48.9722 1.60372 44.0253 1.35885C44.0253 1.35885 43.4114 0.129693 43.2569 0.109173C42.895 0.0632825 42.5248 0.84376 42.2594 0.934328C42.0097 1.01745 41.5899 0.0885653 41.3378 0.129607ZM19.5597 35.9041C19.0941 35.8932 18.6985 35.5109 18.6985 35.038L18.6997 19.6073H13.614V36.617C13.614 37.4505 14.2895 38.1309 15.1182 38.1309H24.0073C24.8419 38.1309 25.5091 37.4505 25.5091 36.617V19.6073H20.4283L20.4234 35.038C20.4234 35.5109 20.0277 35.8932 19.5597 35.9041ZM36.5875 19.6073H28.8902C27.9795 19.6073 27.2377 20.348 27.2377 21.2684V38.1308H32.328V22.6629C32.3316 22.1889 32.7152 21.8137 33.1881 21.8137C33.6634 21.8137 34.0446 22.1804 34.0554 22.6497V38.1309H39.1254V22.6495C39.1314 22.1803 39.5126 21.8136 39.9866 21.8136C40.4571 21.8136 40.8455 22.1888 40.8492 22.6628V38.1309H45.9396V21.2684C45.9396 20.348 45.1965 19.6073 44.2858 19.6073H36.5875ZM6.80818 22.6954C6.81182 22.1803 6.39205 21.8136 5.94692 21.8136H5.08324V31.1827H5.94692C6.39569 31.1827 6.81191 30.8257 6.80818 30.3131V22.6954ZM10.2208 33.4758H5.08324V38.1309H0V19.6073H10.2534C11.1713 19.6073 11.8878 20.3528 11.8878 21.2757V31.8076C11.8878 32.7317 11.1436 33.4758 10.2208 33.4758ZM63.3836 33.9885C62.3619 33.9885 61.5042 34.8715 61.5042 35.9415C61.5042 37.0151 62.3619 37.8908 63.4162 37.8908C64.4621 37.8908 65.3089 37.0151 65.3089 35.9415C65.3089 34.8691 64.4621 33.9885 63.4161 33.9885H63.3836ZM65.6731 35.9355C65.6731 37.1936 64.6647 38.2166 63.4162 38.2166C62.1544 38.2166 61.1412 37.2009 61.1412 35.9355C61.1412 34.6942 62.1544 33.6568 63.3788 33.6568C64.6647 33.6568 65.6731 34.6629 65.6731 35.9355Z" fill="black"/>
<path d="M63.181 35.7908C63.5345 35.7908 63.7203 35.6653 63.7203 35.4145C63.7203 35.1913 63.5405 35.0767 63.1967 35.0767H63.0954V35.7908H63.181ZM64.4827 37.2552H63.8759L63.0954 36.2166V37.2552H62.5996V34.6291H63.1208C63.8288 34.6291 64.2051 34.897 64.2051 35.4084C64.2051 35.7497 63.9832 36.0526 63.6732 36.143L63.637 36.1563L64.4827 37.2552ZM54.4742 31.1864V22.6569C54.4621 22.1852 54.0821 21.8234 53.6081 21.8234C53.1388 21.8234 52.7504 22.1997 52.7468 22.6702V31.1864H54.4742ZM54.4742 38.131V33.4808H52.7468V38.131H47.666V21.2685C47.666 20.3481 48.4078 19.6074 49.3186 19.6074H57.9024C58.8156 19.6074 59.5574 20.3481 59.5574 21.2685V38.1309L54.4742 38.131Z" fill="black"/>
</svg>
