<svg width="73" height="37" viewBox="0 0 73 37" fill="none" xmlns="http://www.w3.org/2000/svg">
<g clip-path="url(#clip0_77_737)">
<path d="M0.290758 0.249557C2.80134 0.250522 5.31192 0.249557 7.8225 0.250522C9.11159 0.26113 10.4123 0.723056 11.3557 1.61219C12.1388 2.33739 12.637 3.38757 12.6032 4.46379C12.6341 5.43972 12.3271 6.43687 11.6956 7.19003C11.1925 7.80818 10.4876 8.23153 9.74213 8.49384C10.5214 8.71564 11.2717 9.14574 11.7323 9.82851C12.0953 10.3415 12.2324 10.9771 12.2382 11.5971C12.2392 12.7409 12.2402 13.8846 12.2373 15.0283C11.1761 15.0264 10.1149 15.0283 9.05366 15.0274C9.05172 14.1093 9.05559 13.1912 9.05269 12.2732C9.03048 11.6174 8.88081 10.9182 8.40573 10.4361C7.90265 9.93362 7.16203 9.78222 6.47645 9.75136C5.75803 9.74268 5.04059 9.75039 4.32217 9.74847C4.32507 8.89501 4.31445 8.04252 4.32797 7.18906C5.3631 7.19871 6.39823 7.19003 7.43336 7.19389C8.15661 7.19292 8.85474 6.74643 9.1618 6.09163C9.58184 5.22949 9.45535 4.04623 8.69348 3.40975C8.26186 3.0568 7.69118 2.92179 7.14272 2.92468C5.86329 2.92757 4.58482 2.92372 3.30635 2.92661C3.30732 6.0762 3.30635 9.22579 3.30635 12.3763C2.30115 12.3763 1.29499 12.3763 0.289792 12.3763C0.289792 8.33376 0.288827 4.29214 0.290758 0.249557Z" fill="black"/>
<path d="M38.4324 0.249557C39.4694 0.250522 40.5065 0.250522 41.5445 0.249557C41.5445 3.43193 41.5455 6.61431 41.5445 9.79668C42.3411 9.79765 43.1378 9.79668 43.9354 9.79765C44.9541 9.81211 45.8714 8.94226 45.9689 7.9403C46.1369 6.88433 45.4098 5.73192 44.3322 5.54291C43.7616 5.4619 43.1822 5.52362 42.6086 5.5053C42.6077 4.64509 42.6086 3.78585 42.6077 2.92661C43.2759 2.92372 43.9441 2.92757 44.6123 2.92468C46.0134 2.89575 47.3826 3.6277 48.2034 4.75117C49.028 5.86597 49.3032 7.34047 49.0338 8.69057C48.6533 10.3772 47.2059 11.6598 45.5866 12.1497C44.7725 12.4149 43.9064 12.4043 43.0605 12.3995C41.5175 12.3995 39.9744 12.3995 38.4314 12.3995C38.4314 8.34919 38.4304 4.29985 38.4324 0.249557Z" fill="black"/>
<path d="M62.8853 0.250525C63.931 0.249561 64.9768 0.249561 66.0235 0.250525C66.0235 2.17827 66.0225 4.10699 66.0235 6.0357C66.6782 6.01255 67.3425 6.09356 67.9914 5.97398C68.5997 5.84861 69.0922 5.3809 69.3027 4.80518C69.5537 4.20246 69.5354 3.53705 69.5566 2.89768C70.5841 2.90829 71.6115 2.89865 72.6398 2.9025C72.6138 3.90158 72.6224 4.96816 72.1001 5.85826C71.653 6.63553 70.809 7.06563 69.9844 7.33083C70.9606 7.6047 71.9108 8.19296 72.3473 9.14092C72.8552 10.1458 72.6804 11.2943 72.7103 12.3763C71.6723 12.3763 70.6343 12.3763 69.5972 12.3763C69.5373 11.4805 69.7816 10.5007 69.2988 9.68482C68.9261 9.01074 68.1469 8.67128 67.4043 8.62306C66.9447 8.60378 66.4831 8.62114 66.0235 8.61535C66.0225 9.86901 66.0225 11.1227 66.0235 12.3754C64.9768 12.3763 63.931 12.3763 62.8853 12.3754C62.8862 8.33376 62.8853 4.29214 62.8853 0.250525Z" fill="black"/>
<path d="M54.5157 2.89382C56.0539 2.6238 57.7119 2.75881 59.1062 3.5004C60.1703 4.06551 61.0027 5.05301 61.3445 6.21024C61.7655 7.64038 61.5946 9.28075 60.7236 10.5142C59.9897 11.574 58.8059 12.2606 57.5612 12.5393C56.1099 12.8604 54.5418 12.7592 53.187 12.1237C51.8873 11.5209 50.8271 10.3599 50.4727 8.95865C50.1087 7.51501 50.3819 5.88525 51.3195 4.70874C52.1046 3.72413 53.2884 3.11658 54.5157 2.89382ZM55.2824 5.29796C54.1623 5.57762 53.3299 6.70302 53.4101 7.85639C53.4555 8.67803 53.9286 9.46687 54.6412 9.88347C55.3481 10.3242 56.2741 10.3647 57.0215 9.99823C58.1715 9.46783 58.7731 8.01069 58.2903 6.83225C57.8673 5.65477 56.4865 4.94404 55.2824 5.29796Z" fill="black"/>
<path d="M14.3819 5.12823C15.1988 3.81478 16.6926 2.95361 18.2434 2.92854C20.2576 2.92178 22.2709 2.92757 24.2842 2.92564C24.2697 3.84853 24.3142 4.77817 24.263 5.69527C23.6073 6.73678 22.9362 7.7696 22.2758 8.80821C21.2754 8.80532 20.276 8.81304 19.2766 8.80436C19.938 7.70596 20.6024 6.60852 21.2551 5.50529C20.4479 5.50337 19.6406 5.50722 18.8324 5.50337C18.1024 5.47926 17.3946 5.90165 17.018 6.51787C16.5661 7.23342 16.5932 8.21996 17.0953 8.90465C17.4999 9.49291 18.2115 9.83429 18.9212 9.82175C20.7086 9.82175 22.4969 9.82079 24.2842 9.82175C24.2842 10.681 24.2852 11.5402 24.2842 12.3995C22.5626 12.4004 20.8409 12.3995 19.1192 12.4004C18.4124 12.4014 17.6891 12.4082 17.0074 12.1941C15.6585 11.8006 14.5248 10.7572 14.0053 9.4553C13.4337 8.06277 13.5708 6.40022 14.3819 5.12823Z" fill="black"/>
<path d="M27.6649 3.84082C28.4528 3.2487 29.4339 2.93625 30.4169 2.92565C32.3964 2.92468 34.3759 2.92565 36.3544 2.92565C36.3563 3.84757 36.3515 4.76949 36.3573 5.69142C35.692 6.73003 35.0286 7.77057 34.3614 8.80822C33.363 8.80725 32.3655 8.80822 31.367 8.80822C32.0188 7.70307 32.688 6.60852 33.3446 5.5053C32.463 5.50723 31.5814 5.49855 30.6998 5.50819C29.5285 5.6027 28.6064 6.79946 28.8014 7.95476C28.9299 8.9548 29.8317 9.78897 30.8456 9.81597C32.6899 9.82851 34.5342 9.81886 36.3776 9.82079C36.3805 10.68 36.3776 11.5393 36.3795 12.3995C34.3962 12.3947 32.4128 12.4111 30.4294 12.3918C29.2089 12.3908 27.9922 11.8961 27.1386 11.0214C26.1228 10.0368 25.614 8.57099 25.7684 7.16978C25.893 5.85922 26.5998 4.61616 27.6649 3.84082Z" fill="black"/>
<path d="M52.3325 18.8395C59.1207 18.0902 65.9321 17.5559 72.7464 17.119C69.0616 18.0564 65.3643 18.959 61.7143 20.0324C56.5889 21.4934 51.5909 23.3565 46.6547 25.3527C44.0717 23.83 41.479 22.3246 38.8979 20.799C43.3407 19.9292 47.8356 19.3515 52.3325 18.8395Z" fill="black"/>
<path d="M3.24463 17.5347C11.7391 17.5453 20.2345 17.5221 28.727 17.5463C30.5829 18.4788 32.3722 19.5425 34.1827 20.5599C41.1969 24.5841 48.1734 28.6749 55.1152 32.8217C56.7838 33.8207 58.4533 34.8169 60.1045 35.8449C60.4666 36.0821 60.849 36.2914 61.185 36.5663C53.6842 33.4186 46.2499 30.1041 38.6448 27.213C32.1607 24.7346 25.5405 22.6111 18.8112 20.9061C15.0965 19.9543 11.3509 19.1268 7.58987 18.3785C6.14532 18.0805 4.68435 17.851 3.24463 17.5347Z" fill="black"/>
<path d="M12.5634 29.9392C16.0917 27.6286 19.988 25.9362 23.9528 24.5292C26.3156 25.1656 28.6379 25.9516 30.966 26.7047C27.8702 27.9304 24.8952 29.4888 22.2156 31.4716C20.5026 32.758 18.8524 34.1708 17.5488 35.8806C13.7038 35.8825 9.85874 35.8845 6.01465 35.8796C7.84061 33.5469 10.0895 31.5632 12.5634 29.9392Z" fill="black"/>
<path d="M24.3036 33.2826C26.96 30.8708 30.0538 28.9681 33.3263 27.5109C35.1745 28.1561 37.0091 28.8418 38.8361 29.5457C37.2554 30.6692 35.6814 31.8293 34.3672 33.2653C33.6102 34.0753 32.941 34.9625 32.3221 35.8806C28.8439 35.8844 25.3658 35.8796 21.8877 35.8835C22.5887 34.9259 23.4356 34.0869 24.3036 33.2826Z" fill="black"/>
</g>
<defs>
<clipPath id="clip0_77_737">
<rect width="73" height="37" fill="white"/>
</clipPath>
</defs>
</svg>
